<?xml version="1.0" encoding="UTF-8"?>
<svg width="51px" height="54px" viewBox="0 0 51 54" version="1.1" xmlns="http://www.w3.org/2000/svg" xmlns:xlink="http://www.w3.org/1999/xlink">
    <!-- Generator: Sketch 64 (93537) - https://sketch.com -->
    <title>barclays</title>
    <desc>Created with Sketch.</desc>
    <defs>
        <linearGradient x1="43.6721006%" y1="106.785326%" x2="87.802549%" y2="-13.709874%" id="linearGradient-1">
            <stop stop-color="#006FFF" offset="0%"></stop>
            <stop stop-color="#00BAFF" offset="100%"></stop>
        </linearGradient>
    </defs>
    <g id="Page-1" stroke="none" stroke-width="1" fill="none" fill-rule="evenodd">
        <g id="Artboard-Copy-7" transform="translate(-960.000000, -1620.000000)" fill="url(#linearGradient-1)">
            <path d="M981.468099,1620.65927 C981.405814,1620.73352 981.393449,1620.76862 981.309181,1620.76277 C981.117288,1620.74747 980.685873,1620.74972 980.557181,1620.74972 C979.950818,1620.74972 979.409488,1620.84467 978.897011,1620.95042 C977.815267,1621.17363 977.147993,1621.61509 976.554911,1622.08175 C976.280124,1622.29821 975.755281,1622.90482 975.636207,1623.55194 C975.536368,1624.0987 975.638955,1624.40426 975.752992,1624.67472 C975.772227,1624.72017 975.844129,1624.80252 975.858326,1624.85202 C976.182117,1624.51811 976.719783,1624.25891 977.736036,1624.25486 C978.871364,1624.25036 980.425741,1624.76022 980.969361,1625.62334 C981.745176,1626.85502 981.590379,1627.8509 981.426881,1629.03443 C981.008747,1632.0675 979.865634,1633.64299 977.327062,1633.98995 C976.887861,1634.0498 976.453698,1634.0804 976.03648,1634.0804 C974.253572,1634.0804 972.95383,1633.52554 972.28793,1632.46936 C972.108402,1632.18495 972.086877,1632.09315 972.086877,1632.09315 C972.086877,1632.09315 972.287014,1632.04545 972.461961,1631.96445 C973.136563,1631.65259 973.644919,1631.19133 973.829942,1630.47941 C974.035574,1629.68694 973.826736,1628.79817 973.298229,1628.21406 C972.342887,1627.15653 971.017957,1626.62012 969.358702,1626.62012 C968.437709,1626.62012 967.621592,1626.79202 967.099039,1626.93557 C965.009743,1627.51069 963.343619,1629.06548 962.005407,1631.68814 C961.058767,1633.54264 960.397446,1635.99295 960.142811,1638.58816 C959.890923,1641.13118 960.015035,1643.27953 960.187235,1645.22268 C960.471639,1648.45646 961.020297,1650.39376 961.814888,1652.47056 C962.631921,1654.61622 963.633519,1656.66557 964.74091,1658.44446 C965.103171,1659.02543 965.368798,1659.45294 965.515809,1659.64689 C965.728311,1659.42729 965.922035,1659.22748 966.222927,1658.93182 C966.658464,1658.50386 967.890883,1656.92117 968.239862,1656.43246 C968.593421,1655.94195 969.242376,1654.95417 969.581738,1654.24271 L969.767677,1653.853 L970.111618,1654.11985 C970.479375,1654.40516 970.693708,1654.90377 970.685007,1655.45279 C970.677679,1655.93475 970.563185,1656.49681 970.262751,1657.52599 C969.935297,1658.64382 969.365114,1659.9808 968.698298,1661.19358 C968.616778,1661.34118 968.53709,1661.48294 968.46015,1661.61704 C968.023239,1662.38656 967.838215,1662.76187 968.002172,1662.93242 C968.407024,1662.98957 968.923165,1662.72812 969.484646,1662.30556 C969.993918,1661.92395 971.355945,1660.79172 972.997338,1658.53446 C974.238458,1656.82577 975.224027,1655.16838 976.194482,1653.15998 L976.336914,1652.86432 L976.643759,1652.99167 C976.813211,1653.06233 976.971213,1653.20363 977.06693,1653.37193 C977.25287,1653.70224 977.316986,1654.14145 977.25287,1654.64142 C977.099905,1655.8506 976.379505,1657.68304 975.801995,1659.00698 C974.822838,1661.25163 973.023901,1663.76404 971.687979,1665.47634 C971.635769,1665.54384 971.312895,1665.92095 971.259769,1665.9889 C971.371058,1666.10095 971.643097,1666.31921 971.972383,1666.58381 L972.477075,1666.99017 C974.309445,1668.47026 976.014039,1669.60789 978.176611,1670.79547 C979.847315,1671.71349 983.246428,1673.40689 985.500138,1674 C987.754306,1673.40689 991.153876,1671.71349 992.82458,1670.79547 C994.963338,1669.62049 996.720599,1668.44686 998.521827,1666.99017 L999.014611,1666.59461 C999.344355,1666.32956 999.61731,1666.11085 999.733637,1665.9952 C999.673642,1665.9052 999.556399,1665.76839 999.485871,1665.68649 C999.423128,1665.61404 999.362674,1665.54294 999.310923,1665.47634 C997.972711,1663.75999 996.174231,1661.24398 995.196448,1659.00653 C994.61848,1657.67989 993.898997,1655.84565 993.749238,1654.64232 C993.684205,1654.1437 993.745574,1653.70314 993.933803,1653.37013 C994.013033,1653.23018 994.127528,1653.13388 994.262631,1653.05243 C994.454982,1652.93542 994.66382,1652.86342 994.66382,1652.86342 L994.806709,1653.16043 C995.774875,1655.16703 996.759985,1656.82442 998.002938,1658.53446 C999.647995,1660.79487 1001.00727,1661.92485 1001.51517,1662.30556 C1002.08673,1662.73397 1002.59096,1662.98957 1002.863,1662.98957 C1003.18221,1662.80732 1003.00406,1662.43561 1002.54471,1661.62559 C1002.46685,1661.48834 1002.38533,1661.34388 1002.30335,1661.19403 C1001.63562,1659.98215 1001.06406,1658.64517 1000.73523,1657.52509 C1000.43663,1656.49816 1000.32351,1655.93655 1000.31664,1655.45324 C1000.30748,1654.90377 1000.52136,1654.40516 1000.8882,1654.1203 L1001.2326,1653.85255 L1001.41808,1654.24271 C1001.78126,1655.00368 1002.45494,1656.0081 1002.76087,1656.43336 C1003.1071,1656.91847 1004.33861,1658.49936 1004.77689,1658.93182 C1005.07687,1659.22703 1005.27013,1659.42549 1005.40066,1659.56049 C1005.62644,1659.45924 1005.8797,1659.05288 1006.2241,1658.49981 C1007.36584,1656.66647 1008.36744,1654.61712 1009.18585,1652.47011 C1009.97815,1650.39421 1010.52726,1648.45826 1010.81396,1645.22223 C1010.98478,1643.28988 1011.10844,1641.15008 1010.85838,1638.59266 C1010.62756,1636.07755 1009.93052,1633.49719 1008.99487,1631.68949 C1008.4256,1630.58651 1007.60445,1629.18878 1006.30058,1628.1641 C1005.63789,1627.64704 1004.82773,1627.23843 1003.89254,1626.94817 C1003.20557,1626.73487 1002.48013,1626.62642 1001.73592,1626.62642 C1000.6789,1626.63947 998.906528,1626.86267 997.716701,1628.21991 C997.176287,1628.83507 996.977067,1629.71844 997.198728,1630.52576 C997.384667,1631.20483 997.836692,1631.70569 998.475571,1631.94195 C998.475571,1631.94195 998.678455,1632.0153 998.997666,1632.07245 C998.905612,1632.24796 998.684867,1632.55441 998.684867,1632.55441 C998.275435,1633.15023 997.359937,1633.931 994.847927,1633.931 C993.374154,1633.8482 992.272717,1633.50664 990.986256,1631.87175 C990.188917,1630.85787 989.78269,1629.15638 989.724527,1626.35596 C989.673233,1624.95102 989.477219,1623.73419 989.135567,1622.75722 C988.906578,1622.10155 988.368454,1621.41394 987.852771,1621.08588 C987.407616,1620.80282 987.020625,1620.57196 986.257633,1620.33031 C985.398467,1620.05895 984.306189,1620.018 983.487782,1620 C982.349707,1620.0081 981.815705,1620.24661 981.468099,1620.65927 Z" id="barclays"></path>
        </g>
    </g>
</svg>