<?xml version="1.0" encoding="UTF-8"?>
<svg width="28px" height="32px" viewBox="0 0 28 32" version="1.1" xmlns="http://www.w3.org/2000/svg" xmlns:xlink="http://www.w3.org/1999/xlink">
    <title>download</title>
    <g id="Page-1" stroke="none" stroke-width="1" fill="none" fill-rule="evenodd">
        <g id="ntu-copy" transform="translate(-6.000000, -2.000000)" fill="#2177FE" fill-rule="nonzero">
            <path d="M19.984375,24.28125 C20.296875,24.28125 20.578125,24.1875 20.90625,23.875 L25.875,19.0625 C26.109375,18.828125 26.25,18.578125 26.25,18.25 C26.25,17.609375 25.75,17.15625 25.109375,17.15625 C24.8125,17.15625 24.5,17.28125 24.28125,17.53125 L22.09375,19.859375 L21.109375,20.921875 L21.21875,18.71875 L21.21875,3.21875 C21.21875,2.5625 20.65625,2 19.984375,2 C19.296875,2 18.734375,2.5625 18.734375,3.21875 L18.734375,18.71875 L18.84375,20.921875 L17.859375,19.859375 L15.6875,17.53125 C15.46875,17.28125 15.125,17.15625 14.828125,17.15625 C14.1875,17.15625 13.703125,17.609375 13.703125,18.25 C13.703125,18.578125 13.84375,18.828125 14.078125,19.0625 L19.0625,23.875 C19.375,24.1875 19.65625,24.28125 19.984375,24.28125 Z M28.453125,33.953125 C31.59375,33.953125 33.171875,32.375 33.171875,29.296875 L33.171875,14.625 C33.171875,11.53125 31.59375,9.953125 28.453125,9.953125 L24.390625,9.953125 L24.390625,12.53125 L28.375,12.53125 C29.796875,12.53125 30.609375,13.296875 30.609375,14.796875 L30.609375,29.125 C30.609375,30.625 29.796875,31.390625 28.375,31.390625 L11.578125,31.390625 C10.140625,31.390625 9.34375,30.625 9.34375,29.125 L9.34375,14.796875 C9.34375,13.296875 10.140625,12.53125 11.578125,12.53125 L15.578125,12.53125 L15.578125,9.953125 L11.484375,9.953125 C8.359375,9.953125 6.765625,11.53125 6.765625,14.625 L6.765625,29.296875 C6.765625,32.390625 8.359375,33.953125 11.484375,33.953125 L28.453125,33.953125 Z" id="download"></path>
        </g>
    </g>
</svg>