<?xml version="1.0" encoding="UTF-8"?>
<svg width="45px" height="40px" viewBox="0 0 45 40" version="1.1" xmlns="http://www.w3.org/2000/svg" xmlns:xlink="http://www.w3.org/1999/xlink">
    <title>lincoln</title>
    <g id="lincoln" stroke="none" stroke-width="1" fill="none" fill-rule="evenodd">
        <g id="university_of_lincoln_logo" fill="#000000" fill-rule="nonzero">
            <g id="Group" transform="translate(0.000000, 0.200000)">
                <g transform="translate(0.000000, 0.600000)">
                    <path d="M8.92932764,34.6668 C9.11868661,34.3588 8.76261159,33.8372 8.17449668,34.1642 C7.98593922,34.27 7.72464387,34.4146 7.70380437,34.4262 C7.67995916,34.5458 7.657717,34.6626 7.63266952,34.7832 C7.66973979,34.7712 7.77554036,34.7694 7.8298433,34.8656 C7.94786705,35.0768 8.33219563,35.7664 8.4460114,35.9698 C8.8660076,35.7702 9.01749478,35.6866 9.16096676,35.5832 C9.67133428,35.2188 9.32006838,34.6506 8.92932764,34.6668 Z M8.00437417,34.5404 C8.06348623,34.5068 8.12840931,34.4704 8.22519278,34.4166 C8.61272745,34.2014 8.87642735,34.687 8.44080152,34.8234 C8.42958025,34.8806 8.4051339,35.011 8.37868376,35.1292 C8.26867521,34.9318 8.16006933,34.7374 8.13682526,34.696 C8.09955461,34.629 8.05266572,34.5784 8.00437417,34.5404 Z M8.89045394,35.456 C8.8321434,35.4888 8.7774397,35.5252 8.63296581,35.5838 C8.61052327,35.544 8.50111586,35.3492 8.39110731,35.1516 C8.39130769,35.151 8.39170845,35.1494 8.39170845,35.149 C8.39150807,35.149 8.39110731,35.1494 8.39010541,35.1494 C8.38649858,35.1428 8.38269136,35.137 8.37868376,35.13 C8.44921747,35.0906 8.52736562,35.0472 8.56884425,35.0264 C9.01208452,34.794 9.2531415,35.254 8.89045394,35.456 Z" id="Shape"></path>
                    <path d="M7.09905793,36.2936 C7.06158689,36.3088 6.80790598,36.4174 6.7449867,36.4436 C6.62976828,36.173 6.40253751,35.6386 6.34783381,35.5092 C6.24403704,35.2658 6.01740741,35.2022 5.94507028,35.1952 C5.90940266,35.3102 5.87473694,35.4244 5.83706553,35.5416 C5.87473694,35.5338 5.98073789,35.5428 6.02381956,35.6452 C6.11859924,35.867 6.38991358,36.505 6.5181567,36.8068 C6.67004463,36.7422 7.45152612,36.411 7.5631377,36.3634 C7.47477018,36.3076 7.33310161,36.2166 7.2407265,36.1552 C7.23812156,36.2336 7.13292213,36.2788 7.09905793,36.2936 Z" id="Path"></path>
                    <path d="M12.8371358,33.0782 C12.6978718,32.8188 12.4786562,32.409 12.4117293,32.2852 C12.3808708,32.2268 12.339793,32.1658 12.2808813,32.1434 C12.4061187,32.0758 12.4842669,32.035 12.5016999,32.025 C12.6042944,31.9708 12.6694179,31.9728 12.7018794,32.0034 C12.7297322,31.8762 12.7519744,31.7642 12.7868405,31.5946 C12.5910693,31.6994 11.7562868,32.1456 11.5525005,32.254 C11.5388746,32.3176 11.4869763,32.5602 11.4647341,32.6638 C11.5108215,32.5924 11.5585119,32.5278 11.6765356,32.4648 C11.7671073,32.417 11.7761244,32.412 11.87932,32.357 C11.9544625,32.3166 12.0426296,32.3384 12.0935261,32.433 C12.2075423,32.6462 12.5732355,33.3286 12.7285299,33.6166 C12.8185005,33.483 12.9377265,33.3068 13.0012469,33.2114 C12.9617721,33.208 12.8996543,33.1956 12.8371358,33.0782 Z" id="Path"></path>
                    <path d="M35.9237018,34.2436 C36.0475366,34.314 36.1238813,34.3574 36.1409136,34.3674 C36.2427066,34.4238 36.2751681,34.4804 36.2667521,34.524 C36.3889839,34.4798 36.4955859,34.4392 36.658094,34.3786 C36.4647274,34.268 35.6429696,33.8008 35.442189,33.6868 C35.380472,33.7094 35.147831,33.7946 35.0478414,33.8306 C35.1326021,33.832 35.2133552,33.8378 35.328774,33.9036 C35.4177426,33.9546 35.426359,33.9596 35.5285527,34.0178 C35.6026933,34.0604 35.6307464,34.146 35.5776458,34.2394 C35.458019,34.4488 35.0742915,35.1212 34.9117835,35.4048 C35.0742915,35.41 35.2866942,35.4164 35.402113,35.4206 C35.3832773,35.3854 35.3610351,35.3258 35.4267597,35.2112 C35.5726363,34.9552 35.8028727,34.5522 35.8726049,34.4286 C35.9056676,34.3718 35.9355242,34.3052 35.9237018,34.2436 Z" id="Path"></path>
                    <path d="M31.4285802,31.4904 C31.2360152,31.3946 31.160472,31.357 30.9502735,31.2532 L30.9500731,31.2522 L30.9500731,31.2522 C30.8384615,31.2996 30.7294549,31.348 30.6168414,31.3954 C30.6462972,31.4188 30.7076135,31.5062 30.65832,31.605 C30.550716,31.8208 30.2218927,32.4816 30.0756154,32.7738 C30.213076,32.771 30.4212707,32.766 30.5637407,32.7614 C30.5384929,32.7238 30.5170522,32.675 30.5765651,32.5558 C30.6294653,32.45 30.6641311,32.379 30.6899801,32.3278 C31.6315651,33.067 32.161169,31.8538 31.4285802,31.4904 Z M30.9843381,32.2006 C30.8997778,32.2378 30.7605138,32.2974 30.6899801,32.3264 C30.8037958,32.1008 30.9238234,31.8584 30.9725157,31.762 C31.0065802,31.6936 31.0224103,31.6264 31.0268186,31.5652 C31.0865318,31.5946 31.1512545,31.6266 31.2484387,31.675 C31.645792,31.8724 31.3436192,32.4822 30.9843381,32.2006 Z" id="Shape"></path>
                    <path d="M11.8029753,33.724 C11.6302479,33.7002 11.4903827,33.6576 11.2767778,33.5512 C11.8662953,33.0928 11.2677607,32.3792 10.6616116,32.7258 C10.4752583,32.8328 10.2153656,32.9818 10.193925,32.9938 C10.172284,33.113 10.1512441,33.2302 10.1284008,33.3508 C10.1642688,33.3386 10.2708708,33.3358 10.3255745,33.4314 C10.446604,33.6416 10.8609896,34.3636 10.9768091,34.5648 C11.0581633,34.441 11.1717787,34.26 11.238906,34.1526 C11.1986296,34.1502 11.1365119,34.1406 11.0689839,34.0222 C11.0230969,33.9426 10.960378,33.8306 10.9078784,33.7402 C10.7936619,33.5414 10.6790446,33.343 10.6311538,33.2584 C10.5928813,33.1914 10.5459924,33.1408 10.4970997,33.1038 C10.5554103,33.0698 10.6197322,33.033 10.7159145,32.9784 C11.1010446,32.7576 11.3992099,33.29 10.9657882,33.4324 C10.9487559,33.5234 10.9146914,33.7026 10.9080788,33.7404 C11.3138481,33.9782 11.5867654,34.0498 11.7580902,34.0596 C12.0760931,34.0802 12.2257768,33.7184 12.2624463,33.563 C12.2434103,33.625 12.094528,33.7644 11.8029753,33.724 Z" id="Path"></path>
                    <path d="M30.181416,31.9408 C30.158773,31.9874 30.0619896,32.0696 29.8682222,32.0372 C29.8303504,31.5954 29.7732422,30.7438 29.7732422,30.7438 L28.4164701,32.0786 L28.7094255,32.1934 C28.7094255,32.1934 28.8166287,32.087 28.9530874,31.9548 C29.0707104,32.0008 29.3638661,32.1146 29.522567,32.1776 C29.525773,32.2058 29.5454103,32.5042 29.5510209,32.5728 C29.689283,32.5566 29.7872688,32.5446 29.9772289,32.5236 C29.8966762,32.4694 29.8870579,32.3436 29.8796439,32.2438 C30.0531728,32.2022 30.1535632,32.0404 30.181416,31.9408 Z M29.1478566,31.764 C29.278905,31.6348 29.4055451,31.5112 29.4720712,31.4466 C29.4812887,31.5784 29.4919088,31.7402 29.5049335,31.9042 C29.3658699,31.85 29.2264055,31.795 29.1478566,31.764 Z" id="Shape"></path>
                    <path d="M38.1669544,36.1478 C38.1411054,36.1934 38.0399136,36.269 37.84815,36.2246 C37.8385318,35.781 37.8345242,34.9288 37.8345242,34.9288 L36.3978006,36.1764 L36.6831415,36.3086 C36.6831415,36.3086 36.7959554,36.211 36.9404292,36.086 C37.0552469,36.139 37.3399867,36.2706 37.4956819,36.3426 C37.496283,36.3714 37.497886,36.67 37.5000902,36.7402 C37.6385527,36.732 37.7371396,36.7266 37.9275005,36.7166 C37.8503542,36.6572 37.8489516,36.5312 37.8475489,36.4312 C38.0234824,36.401 38.133491,36.2456 38.1669544,36.1478 Z M37.1470209,35.9072 C37.2854834,35.7868 37.4197379,35.6712 37.4896705,35.6106 C37.4918746,35.7438 37.4918746,35.9052 37.49468,36.0698 C37.358622,36.0054 37.2225641,35.9432 37.1470209,35.9072 Z" id="Shape"></path>
                    <path d="M10.3265764,34.6078 C10.2125603,34.674 10.1632669,34.7024 9.99655081,34.7996 C9.92381292,34.676 9.83684805,34.5264 9.74787939,34.3738 C9.80719183,34.3398 9.85448148,34.3114 9.90237227,34.2844 C10.0037645,34.225 10.0680864,34.225 10.1015499,34.254 C10.1239924,34.1266 10.1420266,34.0146 10.1706809,33.8444 C10.1273989,33.8688 9.80138082,34.0582 9.62424501,34.1624 C9.5487018,34.0344 9.50381671,33.9564 9.48317759,33.922 C9.44430389,33.8552 9.39681387,33.8052 9.34792118,33.7674 C9.50762393,33.6748 9.53647863,33.6578 9.64909212,33.5928 C9.75008357,33.5334 9.81500665,33.5334 9.84806933,33.563 C9.87111301,33.4338 9.8891472,33.3228 9.91780152,33.1516 C9.55230864,33.3648 9.39460969,33.4562 9.04494682,33.6602 C9.03633048,33.7152 9.00386895,33.897 8.98162678,34.0182 C9.01769516,34.0054 9.12369611,34.0024 9.17940171,34.0978 C9.30183381,34.3068 9.65169706,34.906 9.81640931,35.1882 C9.99334473,35.0852 10.6008965,34.7322 10.7980703,34.6174 C10.6836534,34.565 10.5604198,34.506 10.4504112,34.4508 C10.4594283,34.5294 10.3578357,34.5892 10.3265764,34.6078 Z" id="Path"></path>
                    <path d="M32.6857635,33.8334 C32.5713466,33.7666 32.5224539,33.738 32.354736,33.6432 C32.4268727,33.5174 32.5122346,33.3694 32.6010028,33.2158 C32.6603153,33.2504 32.7070038,33.2772 32.7552953,33.3046 C32.8570883,33.363 32.8893495,33.4188 32.8811339,33.462 C33.0023637,33.4182 33.1089658,33.3776 33.2718746,33.3174 C33.228793,33.2928 32.9015726,33.1042 32.7228338,33.003 C32.7965736,32.8744 32.8418594,32.7972 32.8620978,32.7614 C32.9003704,32.6944 32.9204084,32.6288 32.9284236,32.5674 C33.0889278,32.659 33.1183837,32.676 33.2305964,32.741 C33.3319886,32.7992 33.3644501,32.8556 33.3558338,32.8986 C33.4790674,32.8548 33.5850684,32.8148 33.7481776,32.7542 C33.3804805,32.5434 33.2227816,32.4532 32.8715157,32.2516 C32.8190161,32.2718 32.644886,32.3336 32.5290665,32.3748 C32.5579212,32.4 32.6136268,32.4898 32.5579212,32.5854 C32.4376933,32.7954 32.0908357,33.3964 31.9275261,33.6802 C32.1048623,33.7822 32.7148186,34.132 32.9127939,34.2462 C32.9013723,34.1198 32.8913533,33.9838 32.8835385,33.8628 C32.8198177,33.9086 32.7170228,33.8508 32.6857635,33.8334 Z" id="Path"></path>
                    <path d="M7.88314435,35.812 C7.75550237,35.5462 7.56073314,35.1406 7.50001804,35.0136 C7.38560114,34.7754 7.15596581,34.7214 7.08402944,34.7178 C7.05277018,34.8356 7.02431624,34.95 6.99205508,35.0692 C7.02952612,35.0598 7.13512631,35.065 7.18281671,35.1648 C7.28781576,35.3824 7.60802279,36.0508 7.75009212,36.3458 C7.84647483,36.215 7.97331529,36.0442 8.04064292,35.9524 C8.00156885,35.9466 7.94045299,35.9308 7.88314435,35.812 Z" id="Path"></path>
                    <path d="M36.4032108,35.7564 C36.5526942,35.5022 36.7795242,35.1138 36.8512602,34.9928 C36.9845128,34.7636 36.9003533,34.5446 36.8634834,34.482 C36.7484653,34.523 36.636453,34.5632 36.520433,34.6034 C36.5492877,34.6286 36.6045926,34.719 36.5482858,34.8148 C36.4260541,35.0236 36.0521453,35.6634 35.8862308,35.9456 C36.0483381,35.9524 36.261943,35.9602 36.3761595,35.966 C36.3583257,35.9306 36.3368851,35.8708 36.4032108,35.7564 Z" id="Path"></path>
                    <path d="M32.2838015,32.4548 C32.4136477,32.2236 32.3258813,32.0062 32.2874084,31.9448 C32.1735926,31.9866 32.0625821,32.029 31.9467626,32.0704 C31.976018,32.0956 32.0327255,32.1856 31.9784226,32.282 C31.859397,32.4932 31.4961083,33.138 31.335604,33.424 C31.4973105,33.4276 31.7107151,33.433 31.8249316,33.4348 C31.8068974,33.4012 31.7838538,33.3414 31.8489772,33.226 C31.9936515,32.9694 32.2152716,32.5766 32.2838015,32.4548 Z" id="Path"></path>
                    <path d="M20.8611472,35.9306 C20.6457388,35.9306 20.5613789,35.9306 20.3267341,35.9306 C20.3267341,35.9306 20.3267341,35.9306 20.3259326,35.9296 C20.3259326,35.9306 20.3259326,35.9306 20.3259326,35.9306 L20.3259326,35.9306 C20.2467825,36.0232 20.1716401,36.114 20.0912877,36.206 C20.1287588,36.2142 20.2223362,36.2648 20.2223362,36.3754 C20.2223362,36.6174 20.2223362,37.3532 20.2223362,37.6806 C20.3439668,37.618 20.5283162,37.5204 20.6535537,37.453 C20.61468,37.4312 20.5730009,37.3958 20.5730009,37.2634 C20.5730009,37.146 20.5730009,37.0658 20.5730009,37.009 C21.7460247,37.252 21.6792982,35.9306 20.8611472,35.9306 Z M20.7809953,36.7642 C20.7212821,36.8342 20.6224948,36.95 20.5730009,37.0076 C20.5730009,36.7544 20.5730009,36.4844 20.5730009,36.3758 C20.5730009,36.2994 20.5581728,36.2324 20.5341273,36.1766 C20.6010541,36.1766 20.6735916,36.1766 20.7819972,36.1766 C21.2248367,36.1766 21.2278424,36.8566 20.7809953,36.7642 Z" id="Shape"></path>
                    <path d="M22.9913856,36.3828 C22.9913856,36.624 22.9913856,37.4566 22.9913856,37.6884 C23.1238367,37.6218 23.3127949,37.5212 23.4244065,37.4612 C23.3911434,37.4394 23.3414492,37.4 23.3414492,37.2644 C23.3414492,37.1722 23.3426515,37.0436 23.3426515,36.9382 C23.3426515,36.709 23.3426515,36.48 23.3426515,36.3834 C23.3426515,36.3064 23.3270218,36.2398 23.303377,36.1822 C23.3717066,36.1822 23.4450456,36.1822 23.556056,36.1822 C23.9998974,36.1822 23.9928841,36.7928 23.546037,36.7004 C23.4863238,36.7708 23.3674986,36.91 23.3426515,36.9382 C23.5754929,37.3466 23.7776762,37.5442 23.9209478,37.638 C24.1872526,37.8126 24.4966391,37.5738 24.6066477,37.4572 C24.5591576,37.502 24.3597797,37.5492 24.1281406,37.3692 C23.9896781,37.2636 23.8896885,37.1564 23.7564359,36.9584 C24.4958376,36.8526 24.3333295,35.9366 23.6352061,35.9366 C23.4191966,35.9366 23.1206306,35.9366 23.0955831,35.9366 C23.0170342,36.03 22.9408898,36.1208 22.8609383,36.214 C22.8982089,36.2216 22.9913856,36.272 22.9913856,36.3828 Z" id="Path"></path>
                    <path d="M22.5513514,36.2488 C22.6367132,36.149 22.7082488,36.0622 22.81966,35.9286 C22.3958566,35.9286 22.2143124,35.929 21.8085432,35.929 C21.7732764,35.9726 21.65385,36.1136 21.5732972,36.206 C21.6107683,36.2138 21.7041453,36.264 21.7041453,36.375 C21.7041453,36.6166 21.7041453,37.3094 21.7041453,37.6372 C21.9085328,37.6372 22.6120665,37.6372 22.8404995,37.6372 C22.7681624,37.5338 22.6908158,37.4216 22.6238889,37.3192 C22.5910266,37.3908 22.4740047,37.3918 22.437736,37.3918 C22.3050845,37.3918 22.2485774,37.3918 22.0556116,37.3918 C22.0556116,37.2482 22.0556116,37.0762 22.0556116,36.899 C22.1237407,36.899 22.1790456,36.899 22.2337493,36.899 C22.3509715,36.899 22.4072783,36.9324 22.4213048,36.9738 C22.5048632,36.8756 22.5776011,36.7872 22.6880104,36.6536 C22.6389174,36.6536 22.2603998,36.6536 22.055812,36.6538 C22.0556116,36.5056 22.0556116,36.4164 22.0556116,36.3756 C22.0556116,36.2992 22.0397816,36.2314 22.0159364,36.1742 C22.2014881,36.1742 22.2347512,36.1742 22.3647977,36.1742 C22.4814188,36.1744 22.5381263,36.2066 22.5513514,36.2488 Z" id="Path"></path>
                    <path d="M24.9378756,36.841 C25.1919573,36.8582 25.2508689,37.0508 25.5239867,37.0508 C25.776265,37.0508 25.9337635,36.897 26.0024938,36.7346 C25.8648329,36.8548 25.7351871,36.8708 25.6141576,36.8708 C25.3911349,36.8708 25.2681016,36.6596 25.0190294,36.6596 C24.6621529,36.6596 24.55515,36.9236 24.5325071,36.9752 C24.7304824,36.8188 24.8971985,36.8388 24.9378756,36.841 Z" id="Path"></path>
                    <path d="M18.8024444,36.6516 C18.4455679,36.6516 18.3397673,36.9152 18.3167236,36.967 C18.5138974,36.8108 18.6810142,36.8306 18.7210902,36.8334 C18.9755726,36.8494 19.0340836,37.043 19.3070009,37.043 C19.55968,37.043 19.7179801,36.8892 19.7857085,36.7268 C19.6482479,36.8466 19.5194036,36.8624 19.397773,36.8624 C19.175151,36.8624 19.051717,36.6516 18.8024444,36.6516 Z" id="Path"></path>
                    <path d="M14.37966,32.3478 C14.6235223,32.161 14.5419677,31.9278 14.4728367,31.8138 C14.4966819,31.8754 14.4958803,32.038 14.1798813,32.1856 C13.780925,31.8592 13.1687645,31.3582 13.1687645,31.3582 L13.2074378,33.2574 L13.4929791,33.1242 C13.4929791,33.1242 13.4901738,32.9756 13.4867673,32.7852 C13.6019858,32.7314 13.8530617,32.6144 14.041018,32.5256 C14.1848908,32.6444 14.3071225,32.745 14.3482004,32.7762 C14.4295546,32.6652 14.5439715,32.512 14.6036847,32.4336 C14.5327502,32.4492 14.4550028,32.405 14.37966,32.3478 Z M13.4817578,32.5128 C13.4783514,32.3278 13.4747445,32.1496 13.4733419,32.0566 C13.5450779,32.1146 13.6827388,32.2294 13.8292165,32.3498 C13.6921567,32.414 13.5566999,32.4772 13.4817578,32.5128 Z" id="Shape"></path>
                    <path d="M15.0465242,31.3364 C14.8086733,31.3424 14.660793,31.3348 14.6084938,31.2018 C14.5656125,31.0946 14.6169098,30.9602 14.8068699,30.8862 C14.9928224,30.8132 15.0849972,30.8806 15.1058367,30.9486 L15.2168471,30.6162 C15.0954169,30.5804 14.9060579,30.5956 14.725716,30.6664 C14.3482004,30.8144 14.2021235,31.1126 14.3097274,31.386 C14.4011007,31.6174 14.6321387,31.6966 14.9347123,31.6858 C15.1543286,31.6782 15.283774,31.6774 15.3400807,31.821 C15.3901757,31.9496 15.3276572,32.0856 15.1629449,32.1504 C15.0094539,32.21 14.883415,32.1542 14.8647797,32.0774 L14.6409554,32.338 C14.8054672,32.4594 15.0525356,32.4436 15.2358832,32.3716 C15.6406505,32.2142 15.7522621,31.9082 15.6464615,31.6402 C15.5488765,31.3896 15.3488974,31.328 15.0465242,31.3364 Z" id="Path"></path>
                    <path d="M28.2467483,31.0852 C28.0698129,30.9276 27.9668177,30.8206 28.0193172,30.6894 C28.063,30.581 28.1918443,30.518 28.3814036,30.5934 C28.5671557,30.668 28.5871937,30.78 28.5561349,30.8442 L28.8649202,30.6776 C28.8018006,30.567 28.6531187,30.4504 28.4723761,30.379 C28.0956619,30.228 27.7846724,30.3464 27.675265,30.618 C27.5832906,30.8504 27.696906,31.066 27.9265413,31.2642 C28.0914539,31.409 28.1854321,31.4968 28.1293257,31.6394 C28.0774274,31.7684 27.9387645,31.825 27.7736515,31.7592 C27.6215632,31.698 27.5682621,31.571 27.606735,31.5022 L27.2650874,31.5394 C27.3005546,31.7406 27.4925185,31.898 27.6746638,31.9712 C28.0790304,32.132 28.369982,31.9848 28.4759829,31.7174 C28.5759725,31.4666 28.4723761,31.287 28.2467483,31.0852 Z" id="Path"></path>
                    <path d="M34.9147892,33.8156 C35.0149791,33.6446 34.9528613,33.48 34.9256097,33.4336 C34.839246,33.4634 34.7552868,33.4926 34.6679212,33.5222 C34.6893618,33.542 34.7308405,33.6102 34.6881595,33.6812 C34.6338566,33.7738 34.4477037,34.0882 34.2673618,34.3934 C34.2673618,34.3934 34.1587559,33.1304 34.0200931,32.8996 C33.9215062,32.9326 33.8143029,32.9706 33.6770427,33.0194 C33.7032925,33.0448 33.7589981,33.1338 33.7038936,33.2268 C33.6121197,33.382 33.1604634,34.1476 33.0356268,34.3578 C33.1566562,34.3636 33.3171605,34.3704 33.4029231,34.3738 C33.3888965,34.348 33.3732669,34.303 33.4235622,34.2178 C33.4862811,34.1114 33.678245,33.7876 33.8094938,33.565 C33.8627949,34.0598 33.9649886,34.905 33.9649886,34.905 C33.9649886,34.905 34.2459212,34.9178 34.3316838,34.9216 C34.3180579,34.8958 34.3024283,34.8514 34.3525233,34.7662 C34.4649364,34.5762 34.8610874,33.906 34.9147892,33.8156 Z" id="Path"></path>
                    <path d="M39.5874473,35.7746 C39.6535726,35.8066 39.672208,35.9012 39.6112925,35.967 C39.4810456,36.1076 39.3279554,36.2518 39.0876999,36.512 C38.9931206,36.153 38.8580646,35.6064 38.8189905,35.4556 C38.798151,35.3728 38.7490579,35.2938 38.6999649,35.2472 C38.6244217,35.2988 38.4777436,35.401 38.4011985,35.4528 C38.4372669,35.4698 38.5088025,35.5474 38.4825527,35.6444 C38.4346619,35.8196 38.2022213,36.677 38.137699,36.9144 C38.2561235,36.8878 38.4124198,36.852 38.4955774,36.8324 C38.4757398,36.811 38.4488889,36.7722 38.4743371,36.6764 C38.4991842,36.5848 38.568716,36.3312 38.6210152,36.1352 L38.881509,37.1154 L39.5549858,36.3948 C39.4758357,36.6852 39.3792526,37.042 39.3269535,37.2348 C39.4846524,37.1994 39.6932479,37.153 39.8044587,37.1272 C39.7782089,37.0974 39.7415394,37.0468 39.7768063,36.919 C39.8537521,36.635 39.9721766,36.2002 40.0084454,36.064 C40.0775764,35.8098 39.9395147,35.6184 39.8868148,35.5692 C39.7868253,35.6372 39.689641,35.7058 39.5874473,35.7746 Z" id="Path"></path>
                    <path d="M6.00518424,27.7234 C5.67555935,28.263 4.98825641,28.758 4.01060304,29.4122 C3.73067236,29.9708 3.25998006,30.43 3.01331244,30.4078 C3.14796771,30.162 3.27100095,29.9154 3.37740266,29.451 C2.95720608,30.038 2.64401235,30.7428 1.92645204,31.0672 C2.11661254,30.844 2.39734473,30.3966 2.5031453,29.938 C2.05509592,30.5972 1.57879297,31.1788 1.02975214,31.4476 C1.85912441,30.4188 2.19516144,29.2334 2.19516144,28.6516 C1.38863248,30.4856 0.626587844,31.3812 -0.000801519468,32.0068 C1.94929535,32.23 6.36346344,28.8862 6.36346344,28.8862 C6.36346344,28.8862 6.49871985,28.1264 6.00518424,27.7234 Z" id="Path"></path>
                    <path d="M1.83768376,27.32 C4.16709972,25.127 6.49871985,24.9932 6.67745869,21.8158 C5.60161918,24.3214 2.91272175,25.2166 1.83768376,27.32 Z" id="Path"></path>
                    <path d="M9.33389459,20.7524 C9.06458405,22.0282 8.88544444,23.5272 7.5402944,24.1982 C9.6691301,23.8626 9.40062108,21.9158 9.33389459,20.7524 Z" id="Path"></path>
                    <path d="M21.4430503,30.9776 L22.8326847,30.9776 C22.8332858,30.9776 22.8332858,30.9776 22.8342877,30.9776 L22.9348784,30.9776 C23.1328538,30.9776 23.293358,30.8994 23.293358,30.8036 C23.293358,30.7086 23.1328538,30.6312 22.9348784,30.6312 L22.8326847,30.6312 L21.5452441,30.6312 L21.4430503,30.6312 C21.245075,30.6312 21.0845708,30.7088 21.0845708,30.8036 C21.0845708,30.8994 21.245075,30.9776 21.4430503,30.9776 Z" id="Path"></path>
                    <path d="M21.4430503,31.4794 L22.8326847,31.4794 C22.8332858,31.4794 22.8332858,31.4794 22.8342877,31.4794 L22.9348784,31.4794 C23.1328538,31.4794 23.293358,31.4014 23.293358,31.3058 C23.293358,31.2096 23.1328538,31.1326 22.9348784,31.1326 L22.8326847,31.1326 L21.5452441,31.1326 L21.4430503,31.1326 C21.245075,31.1326 21.0845708,31.2096 21.0845708,31.3058 C21.0845708,31.4016 21.245075,31.4794 21.4430503,31.4794 Z" id="Path"></path>
                    <path d="M19.3883552,20.5284 L17.2164378,20.5284 C17.3575052,20.738 17.5194122,20.9786 17.666491,21.1938 L18.9387028,21.1938 C19.0837778,20.98 19.2456847,20.7408 19.3883552,20.5284 Z" id="Path"></path>
                    <path d="M17.6626838,24.2884 C17.5127996,24.508 17.3474862,24.7534 17.2042146,24.9668 C17.8025489,24.9662 18.7779981,24.9652 19.3895575,24.9668 C19.2446828,24.7504 19.0797702,24.5062 18.9314891,24.2884 L17.6626838,24.2884 Z" id="Path"></path>
                    <rect id="Rectangle" x="17.6895347" y="21.4396" width="1.22692593" height="2.603"></rect>
                    <path d="M16.2864748,24.6052 C16.2868756,24.6062 16.287076,24.6074 16.287076,24.6088 C16.3475907,24.983 16.6756125,25.0902 16.878397,24.9696 C17.0407047,24.7272 17.2543096,24.4094 17.4432678,24.1324 L17.4432678,21.3442 C17.2595195,21.075 17.0529278,20.7678 16.8922232,20.5284 C16.8922232,20.5284 16.519717,20.5612 16.531339,20.2976 C16.5381519,20.119 16.7820142,20.0998 16.9296942,20.1202 C16.9856002,20.119 20.0213552,20.1178 20.2507901,20.1198 L20.2465821,24.2788 C20.1019079,24.3708 19.9454112,24.5008 19.8650589,24.608 L19.8636562,20.5284 L19.7115679,20.5284 C19.5474568,20.773 19.3438708,21.0754 19.1623267,21.3412 L19.1623267,24.1512 C19.3454739,24.4192 19.5506629,24.7252 19.7137721,24.9682 C19.7784948,24.9688 19.8275878,24.9682 19.8664615,24.9688 C19.9872906,24.7582 20.1736439,24.5548 20.3503789,24.4728 C20.4118955,24.4716 20.4463609,24.474 20.4940513,24.474 C20.4940513,24.4108 20.4946524,19.8618 20.4946524,19.8618 C20.4946524,19.8618 17.4420655,19.859 16.9519364,19.8614 C16.7112802,19.8108 16.2736505,19.88 16.2758547,20.2574 C16.2758547,20.562 16.2758547,20.9708 16.2758547,21.4182 C16.3507968,21.461 16.4924653,21.5088 16.7555641,21.5172 C16.7605736,21.5862 16.7146866,21.653 16.6329316,21.6874 C16.5263295,21.7324 16.372037,21.7214 16.2758547,21.7076 C16.2758547,22.3476 16.2758547,23.0332 16.2758547,23.5868 C16.3301576,23.6326 16.4694217,23.7072 16.8032545,23.718 C16.808264,23.788 16.762377,23.854 16.6802213,23.8888 C16.5535812,23.9418 16.3592127,23.9164 16.2756543,23.9014 C16.2756543,24.1422 16.2756543,24.344 16.2756543,24.4834 C16.2756543,24.5114 16.277057,24.536 16.2796619,24.5594 C16.2822669,24.5752 16.2846714,24.5894 16.2864748,24.6052 Z" id="Path"></path>
                    <path d="M26.9917692,20.5294 L24.8202526,20.5294 C24.9615204,20.7394 25.1228262,20.979 25.269905,21.1952 L26.5421168,21.1952 C26.6879934,20.9814 26.8484976,20.7422 26.9917692,20.5294 Z" id="Path"></path>
                    <path d="M25.2658974,24.29 C25.1162137,24.509 24.9506999,24.7548 24.8074283,24.9672 C25.4063637,24.9666 26.3814122,24.9658 26.9931719,24.9682 C26.8478965,24.752 26.6829839,24.5072 26.5347028,24.29 L25.2658974,24.29 Z" id="Path"></path>
                    <rect id="Rectangle" x="25.2933495" y="21.4412" width="1.22632479" height="2.6024"></rect>
                    <path d="M24.5555508,19.8624 C24.3158965,19.8116 23.8776657,19.8804 23.8796627,20.2584 C23.8796627,20.5628 23.8796627,20.9728 23.8796627,21.4194 C23.9552127,21.4614 24.0966809,21.5094 24.3597797,21.518 C24.3647892,21.5878 24.3181007,21.6546 24.2367464,21.6882 C24.1301443,21.733 23.9758519,21.7222 23.8796627,21.7092 C23.8796627,22.349 23.8796627,23.034 23.8796627,23.5874 C23.9343732,23.6338 24.0728357,23.709 24.4070693,23.7198 C24.4124796,23.788 24.3661918,23.8554 24.2844368,23.8896 C24.157396,23.9426 23.9632279,23.9172 23.8796627,23.9028 C23.8796627,24.143 23.8796627,24.3442 23.8796627,24.4846 C23.8796627,24.5124 23.8812726,24.5374 23.8838775,24.5602 C23.8854805,24.5766 23.8876847,24.5914 23.8900893,24.6066 C23.8900893,24.6074 23.89049,24.6088 23.8906904,24.6096 C23.9512051,24.984 24.2790266,25.0916 24.4812099,24.971 C24.6449202,24.7276 24.8581244,24.4102 25.047283,24.1334 L25.047283,21.3458 C24.8633343,21.0756 24.6567426,20.7682 24.4962384,20.5298 C24.4962384,20.5298 24.1235318,20.5632 24.1351538,20.2986 C24.1427683,20.1204 24.3858291,20.101 24.5331083,20.1212 C24.5898158,20.1204 27.6247692,20.1188 27.8548053,20.1212 L27.8507977,24.2802 C27.7061235,24.3718 27.549226,24.502 27.4682726,24.6098 L27.467471,20.5298 L27.314982,20.5298 C27.1516724,20.774 26.9472849,21.0772 26.7663419,21.3428 L26.7663419,24.1524 C26.9488879,24.421 27.1546781,24.7262 27.3175869,24.9698 C27.38251,24.9706 27.4320038,24.969 27.4702764,24.9706 C27.5919069,24.7602 27.7776591,24.556 27.953793,24.4742 C28.0157104,24.4718 28.0505764,24.475 28.0978661,24.475 C28.0978661,24.4126 28.0992688,19.8632 28.0992688,19.8632 C28.0992688,19.8632 25.0462811,19.8594 24.5555508,19.8624 Z" id="Path"></path>
                    <path d="M23.7502241,29.1374 C23.7502241,29.1374 24.2481681,28.7068 24.2820323,28.1648 C23.7502241,28.0702 23.2290361,28.5232 23.2290361,28.5232 C23.2290361,28.5232 23.5037569,27.9578 23.3300275,27.4218 C22.736302,27.5436 22.5174872,28.2042 22.5174872,28.2042 C22.5174872,28.2042 22.5898243,27.4996 22.1872612,27.164 C22.1868604,27.1648 22.18666,27.1662 22.1862593,27.167 C22.1862593,27.1662 22.1860589,27.1648 22.1856581,27.164 C21.7826942,27.4996 21.8554321,28.2042 21.8554321,28.2042 C21.8554321,28.2042 21.6366173,27.5442 21.0430921,27.4218 C20.868962,27.9578 21.1438832,28.5232 21.1438832,28.5232 C21.1438832,28.5232 20.6224948,28.0702 20.0910874,28.1648 C20.1245508,28.7078 20.6224948,29.138 20.6224948,29.138 C20.6224948,29.138 19.9444093,28.9088 19.5242127,29.3842 C20.4183077,29.4568 21.0394853,29.7978 21.2841491,30.4034 L21.6097664,30.4034 C21.5388319,30.0116 21.4079839,29.6374 21.1935774,29.3046 C21.1935774,29.3046 21.1524995,29.2498 21.239264,29.188 C21.3314387,29.1216 21.3632991,29.1954 21.3632991,29.1954 C21.5933352,29.5522 21.7384103,29.9728 21.8161576,30.4034 L22.0852678,30.4034 C22.0858689,29.9538 22.0858689,29.4986 22.0858689,29.0656 C22.0858689,29.0656 22.0858689,28.99 22.1832536,28.99 C22.2796363,28.99 22.2882526,29.0656 22.2882526,29.0656 C22.2882526,29.4962 22.2876515,29.9522 22.2860484,30.4034 L22.5567616,30.4034 C22.634509,29.9728 22.7797844,29.5526 23.0102213,29.1954 C23.0102213,29.1954 23.0414805,29.1216 23.1338557,29.188 C23.2210209,29.2498 23.179943,29.3046 23.179943,29.3046 C22.9651358,29.6374 22.8330855,30.0116 22.7633533,30.4034 L23.0891709,30.4034 C23.333434,29.798 23.9546116,29.457 24.8483058,29.3842 C24.4283096,28.9088 23.7502241,29.1374 23.7502241,29.1374 Z" id="Path"></path>
                    <path d="M23.0328642,31.7076 L22.7110541,31.7076 C22.7256819,32.2274 22.7597464,32.706 22.9262621,33.1254 C22.9262621,33.1254 23.0054122,33.293 22.8927987,33.3436 C22.8310817,33.3714 22.7639544,33.3156 22.7078481,33.1918 C22.5701871,32.8898 22.5190902,32.3028 22.4966477,31.7076 L22.282642,31.7076 C22.2814397,31.9728 22.2808386,32.2248 22.2798367,32.451 C22.2780332,32.9514 22.2886534,33.3336 22.2886534,33.5144 C22.2886534,33.5144 22.2932621,33.5932 22.1848566,33.591 C22.081661,33.5884 22.0744473,33.516 22.0744473,33.516 C22.0744473,33.3364 22.0784549,32.9376 22.0802583,32.4376 C22.0812602,32.214 22.0820617,31.9678 22.0824625,31.7076 L21.8756705,31.7076 C21.8540294,32.3022 21.8021311,32.8892 21.6646705,33.1918 C21.6085641,33.3156 21.5414368,33.3712 21.4797198,33.3436 C21.3675071,33.293 21.4458557,33.1254 21.4458557,33.1254 C21.6127721,32.706 21.6468367,32.2274 21.6618651,31.7076 L21.3398547,31.7076 C21.2540921,32.3116 21.1314596,32.6018 20.883189,33.0658 C20.84151,33.1676 20.9505166,33.3768 21.1685299,33.2514 C21.1685299,33.525 21.5049677,33.704 21.7660627,33.4992 C21.8273789,33.8522 22.1854577,33.7948 22.1854577,33.7948 C22.1854577,33.7948 22.1864596,33.7932 22.1872612,33.7928 L22.1872612,33.7948 C22.1872612,33.7948 22.5457407,33.8522 22.6066562,33.4992 C22.8675508,33.7038 23.2035878,33.525 23.2035878,33.2514 C23.4216011,33.3768 23.5308082,33.1676 23.4893295,33.0658 C23.2414596,32.6018 23.1180256,32.3116 23.0328642,31.7076 Z" id="Path"></path>
                    <path d="M31.2632669,4.502 C31.2883143,4.4774 31.3151652,4.456 31.3428177,4.4336 C31.228,4.696 31.1765024,5.1012 31.4083419,5.6878 C31.2492403,4.954 31.5616325,4.4566 31.7804473,4.2102 C31.8369544,4.1922 31.8944634,4.1774 31.9541766,4.1642 C31.8169164,4.3518 31.6536068,4.7452 31.850981,5.4586 C31.7343599,4.6122 32.1639744,4.1594 32.6765461,4.1218 C32.9937474,4.1534 33.3019316,4.248 33.5397825,4.4122 C32.7086068,4.3898 32.4302792,4.6994 32.4190579,5.0954 C32.3966154,5.8962 32.9689003,6.5398 33.6373675,7.1806 C33.5177407,7.2734 33.3776752,7.3556 33.2127626,7.4204 C33.4858803,7.6026 33.7834444,7.6278 34.0561614,7.5756 C34.6629117,8.1456 35.2652536,8.7374 35.5211387,9.4564 C35.4375802,8.8712 35.0782991,8.0852 34.4038205,7.4662 C34.6765375,7.3454 34.8871368,7.17 34.9614777,7.0514 C35.3866838,7.9124 37.0001425,9.6798 39.3756458,9.1878 C36.6641054,8.3598 36.3052251,6.1794 35.0278034,4.7696 C36.8881301,5.3068 38.1769734,7.6168 39.9359079,7.6722 C40.0028348,7.1354 41.3984805,7.2358 42.1206496,6.9006 C42.8442213,6.5652 43.0283704,4.9046 41.3814482,4.3674 C41.5667996,4.719 41.5998623,6.0782 40.8943248,6.3634 C41.5834311,6.33 41.9022355,5.4912 41.7513495,4.8376 C43.045603,5.6758 41.8270931,7.1818 40.6418462,6.4646 C39.0618509,5.508 38.4901671,5.0384 36.8652868,4.5016 C37.5377616,4.2672 39.106736,4.1438 39.9357075,4.7254 C39.566207,3.6856 39.0171662,3.495 38.4569041,3.4282 C38.7929411,3.0924 39.1628424,1.2356 37.1119544,0.6652 C37.9862118,1.09 38.0198756,3.2158 36.036716,3.2488 C35.0165821,3.2664 33.4776648,3.174 32.288811,3.4116 C30.7791491,3.7116 30.3721776,5.0048 31.0616847,5.9784 C30.9272298,5.626 30.8222308,4.9328 31.2632669,4.502 Z M33.8495698,6.9764 C33.5055176,6.6474 33.1536505,6.2474 32.9600836,5.8612 C32.6326629,5.2022 32.8514777,4.6246 33.881831,4.7728 C34.2439174,5.342 34.4004141,6.331 33.8495698,6.9764 Z" id="Shape"></path>
                    <path d="M2.25146819,6.901 C2.97463913,7.2362 4.369283,7.1358 4.43661064,7.6726 C6.19554511,7.6172 7.48438841,5.307 9.34451472,4.77 C8.06649193,6.18 7.70861349,8.3604 4.99667236,9.1882 C7.37237607,9.6802 8.98563438,7.9128 9.41124122,7.0518 C9.48538177,7.1704 9.69537987,7.346 9.96829725,7.4666 C9.29381861,8.0854 8.93493827,8.8716 8.85137987,9.4568 C9.1068642,8.7376 9.70960684,8.1462 10.3159563,7.576 C10.5884729,7.628 10.8866382,7.6028 11.1595556,7.4208 C10.9948433,7.3558 10.8541766,7.2748 10.7349506,7.181 C11.4032175,6.5402 11.9751016,5.8966 11.9530598,5.0958 C11.9414378,4.6998 11.6637113,4.3908 10.8325356,4.4126 C11.0699858,4.2488 11.3779696,4.1538 11.6953713,4.1224 C12.2077426,4.1598 12.6375575,4.6124 12.5209364,5.4588 C12.7187113,4.7454 12.5554017,4.352 12.4179411,4.1644 C12.4768528,4.1776 12.5351633,4.1926 12.5918708,4.2104 C12.8110864,4.4566 13.1224767,4.9542 12.9635755,5.688 C13.195415,5.1014 13.1441178,4.6962 13.0295005,4.4338 C13.0571529,4.456 13.0844046,4.4776 13.1088509,4.5022 C13.5492858,4.934 13.4454891,5.6264 13.310433,5.979 C13.9997398,5.0052 13.593169,3.712 12.0839079,3.4122 C10.8942526,3.1746 9.35553561,3.267 8.33500095,3.2494 C6.35204179,3.2162 6.3857056,1.0906 7.25996296,0.6658 C5.2092754,1.2362 5.57877588,3.0934 5.91541406,3.4288 C5.35515195,3.4956 4.80591073,3.6864 4.4360095,4.726 C5.26498101,4.1452 6.83395537,4.2678 7.5064302,4.5022 C5.88195062,5.039 5.31046724,5.5092 3.7302716,6.4652 C2.54462393,7.1824 1.32691548,5.6766 2.62016714,4.8382 C2.46988224,5.492 2.78928775,6.3306 3.47819373,6.364 C2.77265622,6.0794 2.80611966,4.7204 2.9908699,4.3684 C1.34394777,4.9048 1.52889839,6.5656 2.25146819,6.901 Z M10.4908879,4.7728 C11.5208405,4.6248 11.7394549,5.2022 11.4120342,5.8612 C11.2190684,6.2474 10.8666002,6.6476 10.522548,6.9764 C9.97230484,6.331 10.1282004,5.342 10.4908879,4.7728 Z" id="Shape"></path>
                    <path d="M21.4709031,0.4492 C21.4709031,0.4492 21.3757227,0.2658 21.2723267,0.2658 C21.1683295,0.2658 21.0873761,0.4526 21.0873761,0.4526 C21.0873761,0.4526 21.2320503,0.616 21.2723267,0.7268 C21.3590912,0.5554 21.4709031,0.4492 21.4709031,0.4492 Z" id="Path"></path>
                    <path d="M20.7343067,0.1338 C20.7375128,0.1594 20.8240769,0.1748 20.8298879,0.1954 C20.9020247,0.4708 21.0949905,0.2992 21.1264501,0.19 C21.0342754,0.0874 20.8521301,0.0054 20.7343067,0.1338 Z" id="Path"></path>
                    <path d="M21.6993362,0.2038 C21.7051472,0.1832 21.7917113,0.1682 21.7951178,0.1416 C21.6776952,0.013 21.513584,0.0766 21.4029744,0.198 C21.4336325,0.3076 21.6276002,0.479 21.6993362,0.2038 Z" id="Path"></path>
                    <path d="M42.1763552,28.6516 C42.1763552,29.2334 42.5123922,30.419 43.3419649,31.4476 C42.7931244,31.1788 42.3170218,30.5972 41.8685717,29.9376 C41.9751738,30.3966 42.2551045,30.8428 42.4454653,31.067 C41.7281054,30.7426 41.4143105,30.0378 40.9943143,29.4508 C41.100716,29.9152 41.22415,30.1618 41.3584046,30.4076 C41.1121377,30.4298 40.6414454,29.9706 40.3615147,29.412 C39.383661,28.7574 38.6961576,28.2628 38.3669335,27.7232 C37.8737987,28.1256 38.0084539,28.886 38.0084539,28.886 C38.0084539,28.886 42.4230228,32.2298 44.3725185,32.0066 C43.7457303,31.3812 42.9836857,30.4856 42.1763552,28.6516 Z" id="Path"></path>
                    <path d="M19.5410446,13.2696 C20.9412991,13.8626 22.1854577,14.7686 22.1854577,14.7686 L22.1860589,14.768 L22.1870608,14.7686 C22.1870608,14.7686 23.4306182,13.8626 24.8310731,13.2696 C23.5987369,13.2254 22.1870608,14.2404 22.1870608,14.2404 L22.1860589,14.2412 L22.1854577,14.2404 C22.1854577,14.2404 20.7737816,13.2254 19.5410446,13.2696 Z" id="Path"></path>
                    <path d="M36.8318234,24.198 C35.4870741,23.5272 35.3083352,22.0272 35.0388243,20.7522 C34.9722982,21.9158 34.7029877,23.8626 36.8318234,24.198 Z" id="Path"></path>
                    <path d="M36.1819915,21.1436 C36.3615318,23.9856 37.3916847,24.8582 38.6023799,24.8812 C37.9531491,24.5232 36.7871387,23.8294 36.1819915,21.1436 Z" id="Path"></path>
                    <path d="M34.770716,22.9454 C34.1811985,22.4426 34.0309136,21.6028 33.9858281,20.2828 C33.6271481,21.4016 33.6718329,22.4534 34.770716,22.9454 Z" id="Path"></path>
                    <path d="M42.5352355,27.32 C41.4591956,25.2166 38.7704986,24.3216 37.6946591,21.8148 C37.8741994,24.9932 40.205018,25.127 42.5352355,27.32 Z" id="Path"></path>
                    <path d="M5.77013865,24.8812 C6.98023267,24.859 8.0109867,23.9854 8.19052707,21.1436 C7.58477873,23.8294 6.41977018,24.5232 5.77013865,24.8812 Z" id="Path"></path>
                    <path d="M10.3862896,20.2826 C10.3412042,21.6028 10.1917208,22.4426 9.60240361,22.9452 C10.7002849,22.4534 10.7453704,21.4016 10.3862896,20.2826 Z" id="Path"></path>
                </g>
                <path d="M37.022585,19.6858 C42.1320712,22.9528 43.0844767,28.2114 43.2636163,29.0616 C41.9190674,27.7408 40.5855394,26.9914 38.568716,25.8728 C37.9860114,25.8052 35.8177009,25.0166 34.5583134,23.8798 C33.5039145,23.523 32.842661,21.9114 33.5155366,20.6032 C32.2711776,21.3746 32.910189,23.1876 32.910189,23.1876 C32.910189,23.1876 32.8266306,23.1468 32.6981871,23.0592 C32.0313229,22.49 31.7562013,21.5012 32.3833903,20.4572 C31.8391586,20.8644 31.6371757,21.3194 31.5644378,21.6452 C31.469057,21.1382 31.479076,20.52 32.0359316,19.7636 C31.5792659,19.9648 31.3319972,20.2578 31.2003476,20.5356 C31.1967407,20.5122 31.1939354,20.4882 31.190529,20.4628 C31.2197844,20.0012 31.3680655,19.2868 31.9690047,18.858 C31.7195318,18.9158 31.5277683,19.02 31.3796876,19.1484 C32.4952023,16.7836 36.7743143,15.8288 37.4702336,13.5686 C37.9395233,12.0462 36.148528,11.4212 34.9470503,11.6098 C34.9320218,11.4972 34.8995603,11.3274 34.8039791,11.2744 C34.4418927,12.4862 32.951868,12.7836 31.7704283,12.242 C31.483284,11.7314 31.9435565,11.5488 32.2597559,11.4338 C32.3771785,11.3918 33.2069516,11.7098 33.323773,10.9986 C33.6539991,10.967 33.9940437,10.8816 34.1114663,10.7442 C33.8028813,10.754 33.1981349,10.6358 32.7915641,10.712 C32.3338965,10.7962 32.2701757,10.9136 32.1741937,11.1364 C32.0906353,11.3318 31.9417531,11.048 31.609924,10.9562 C31.9617911,10.573 32.9350361,9.8384 34.8939497,10.5934 C37.2243675,10.6158 38.3226496,11.5496 38.5689164,12.606 C39.3083181,15.7824 34.0421349,17.2812 33.7728243,19.2048 C34.7813362,19.0592 35.5658234,19.183 36.3050247,19.3718 C36.0703799,19.1936 35.5435812,18.8694 34.7592944,18.713 C35.0622688,17.7366 37.7363381,16.5208 38.6807284,14.6368 C39.5523808,14.5944 40.5807303,14.7812 41.1125385,15.4356 C40.7684862,14.4996 39.7731994,14.25 38.8360228,14.2762 C38.9684739,13.9112 39.0325954,13.522 39.0023381,13.106 C39.8483419,13.2508 40.5787265,13.565 41.0365945,13.993 C41.8264919,14.7314 41.4233276,16.2608 40.2380807,16.4002 C39.3141292,16.5094 38.8855166,15.9218 38.9107645,15.5202 C38.2158471,16.8618 39.712284,17.6726 39.712284,17.6726 C39.712284,17.6726 38.624622,20.5356 41.6501576,21.3078 C40.1036258,20.2342 40.4739278,18.388 41.2810579,17.4494 C42.0873865,16.5096 42.6195954,15.3366 41.7174853,14.1106 C41.3133191,13.5612 40.3048072,12.9258 38.9482355,12.723 C38.935812,12.6624 38.921585,12.6012 38.9053542,12.5396 C38.568716,11.2924 37.4191368,10.4412 35.0666771,10.2106 C33.5401833,7.9868 29.5636448,7.759 29.1793162,5.8238 C29.4478253,6.176 30.0700047,6.4776 30.8767341,6.5284 C29.9523818,6.2426 29.1793162,5.4488 28.7306657,4.8448 C28.0153096,7.9328 33.2277911,8.5046 34.5571111,10.0838 C32.3254805,9.3942 31.27549,10.8522 31.27549,10.8522 C31.27549,10.8522 30.5731586,10.868 30.6631292,11.6364 C30.5030256,11.9022 30.117094,12.0812 29.7355708,12.2298 C29.7317635,12.043 29.7427844,11.8494 29.7558091,11.6574 L29.7744444,11.6574 C29.9766277,11.6574 30.1417407,11.4932 30.1417407,11.291 C30.1417407,11.0928 29.9844425,10.9326 29.7886714,10.9254 C29.8800446,9.8468 30.8633086,10.0074 31.2983333,10.1488 C30.9783267,9.1464 29.7806562,9.4194 29.7806562,9.4194 C29.7806562,9.4194 29.9289373,8.0988 29.2899259,7.6434 C28.6509145,8.0988 28.7991956,9.4194 28.7991956,9.4194 C28.7991956,9.4194 27.6011244,9.1464 27.2819193,10.1488 C27.7165432,10.0072 28.6998072,9.8468 28.791982,10.9254 C28.5954093,10.9326 28.4385119,11.0926 28.4385119,11.291 C28.4385119,11.4932 28.602623,11.6574 28.8056078,11.6574 L28.8242431,11.6574 C28.8725347,12.409 28.9049962,13.1838 28.0692118,13.474 C28.5803808,13.7466 29.0911491,13.5358 29.2899259,13.2364 C29.4885024,13.5356 29.9996714,13.7464 30.5112412,13.474 C30.1016648,13.3322 29.9008841,13.0736 29.8081083,12.7586 C30.3878072,12.6846 30.9111994,12.7586 31.5151443,12.6452 C31.9938519,12.8052 33.8780237,13.2934 34.9422412,11.9124 C35.0372213,11.9044 35.1318006,11.8992 35.2243761,11.896 C35.1971244,12.798 34.6336562,13.5498 33.9297217,13.9712 C32.8099991,14.6428 30.1655859,15.1672 28.5070418,14.1388 C27.4648661,13.4928 26.6711614,12.0868 25.4356192,11.2206 C25.8309687,11.1726 26.0451747,10.9168 26.1143058,10.6478 C26.2078832,10.2848 26.0610047,9.8188 25.6838898,9.5314 L25.6888993,5.9802 L25.6888993,5.9802 L25.6888993,4.8166 L25.429207,4.952 L25.0164245,2.731 L25.0164245,2.662 C25.0979791,2.6354 25.1570912,2.5596 25.1570912,2.4682 C25.1570912,2.356 25.0667198,2.264 24.955509,2.264 C24.8438974,2.264 24.7537265,2.356 24.7537265,2.4682 C24.7537265,2.5616 24.8154435,2.6392 24.8988015,2.6636 L24.8988015,2.7318 L24.4872213,4.9514 L24.2273286,4.8168 L24.2273286,5.7508 L24.2255252,5.7508 L24.2255252,6.3548 L24.1612032,6.3548 C24.0057085,5.9986 23.848811,5.6166 23.597735,4.934 C23.7159592,5.0352 24.0692289,5.2198 24.1529877,5.2364 C23.8339829,4.1296 23.5189858,2.2314 22.3261244,1.5344 C22.2778329,1.5056 22.1720323,1.3916 22.1806486,1.176 C22.1894653,0.9602 22.2002858,0.5392 21.9962991,0.3032 C21.8331899,0.1158 21.5274103,0.0592 21.2733286,0.052 C21.059924,0.0454 20.8761757,0.0706 20.6962346,0.1802 C20.1808575,0.4938 20.3263333,1.4444 20.3263333,1.4444 C20.3263333,1.4444 20.2361624,1.87 20.2361624,2.0492 C19.5418462,3.0114 20.673792,3.9032 21.0436933,4.2472 C21.1412783,4.9964 21.1783485,5.0354 21.245075,5.4384 C21.2280427,5.5824 21.1476904,6.1022 20.93649,6.355 L20.148396,6.355 L20.1469934,4.8172 L19.8871007,4.9524 L19.4747189,2.732 L19.4747189,2.6638 C19.5584777,2.6394 19.6201947,2.5618 19.6201947,2.4684 C19.6201947,2.3562 19.5294226,2.2642 19.4186125,2.2642 C19.3068006,2.2642 19.21683,2.3562 19.21683,2.4684 C19.21683,2.56 19.2759421,2.636 19.3570959,2.6622 L19.3570959,2.732 L18.9461168,4.9466 L18.6844207,4.8172 L18.6844207,5.751 L18.6844207,5.7596 L18.6844207,5.98 L18.6852222,5.98 L18.689831,9.5312 C18.3129164,9.8186 18.1656372,10.2846 18.2592146,10.6476 C18.3281453,10.9166 18.5425518,11.173 18.9379012,11.2204 C17.7027597,12.0866 16.9084539,13.4924 15.8662783,14.1386 C14.2081349,15.167 11.5637217,14.6426 10.4431975,13.971 C9.73966382,13.5496 9.17799905,12.7978 9.14994587,11.8958 C9.24212061,11.899 9.33609877,11.905 9.4312792,11.9124 C10.4956971,13.2934 12.3794682,12.8048 12.8585764,12.6452 C13.4617198,12.7584 13.9859136,12.6844 14.5656125,12.7584 C14.4720351,13.0734 14.2712545,13.332 13.8616781,13.4738 C14.3734482,13.7464 14.8844169,13.5356 15.0831937,13.2362 C15.2823713,13.5354 15.7927388,13.7462 16.3041083,13.4738 C15.4681235,13.1836 15.500585,12.4092 15.5486762,11.6572 L15.568113,11.6572 C15.7702963,11.6572 15.9350085,11.4934 15.9350085,11.2908 C15.9350085,11.0926 15.7783115,10.9328 15.5819392,10.9252 C15.6733124,9.8466 16.6567768,10.0072 17.0920019,10.1486 C16.772396,9.1462 15.5741244,9.4192 15.5741244,9.4192 C15.5741244,9.4192 15.7226059,8.0986 15.0833941,7.6432 C14.4441823,8.0986 14.5924634,9.4192 14.5924634,9.4192 C14.5924634,9.4192 13.3949934,9.1462 13.0753875,10.1486 C13.5100114,10.007 14.493075,9.8466 14.5854501,10.9252 C14.3888775,10.9328 14.2319801,11.0924 14.2319801,11.2908 C14.2319801,11.4934 14.3960912,11.6572 14.599076,11.6572 L14.6185128,11.6572 C14.6311368,11.8496 14.6415565,12.0428 14.6379497,12.2296 C14.2564264,12.081 13.8706952,11.902 13.7109924,11.6362 C13.8005622,10.8678 13.0982308,10.852 13.0982308,10.852 C13.0982308,10.852 12.0478395,9.394 9.81600855,10.0836 C11.1457293,8.5052 16.3578101,7.9326 15.6424539,4.8446 C15.1940038,5.4488 14.421339,6.2428 13.4967863,6.5282 C14.3031149,6.4774 14.9256952,6.1756 15.1940038,5.8236 C14.8098756,7.7584 10.8349402,7.9858 9.30724406,10.2082 C6.95177873,10.4386 5.80520513,11.2916 5.46856695,12.5394 C5.4521358,12.6008 5.43750807,12.662 5.4252849,12.7228 C4.0687132,12.9256 3.06040171,13.561 2.65563438,14.1104 C1.75352422,15.3362 2.2861339,16.5094 3.09286325,17.4492 C3.89979297,18.388 4.26969421,20.234 2.72296201,21.3076 C5.74849763,20.5356 4.66163723,17.6728 4.66163723,17.6728 C4.66163723,17.6728 6.15727255,16.8614 5.46275594,15.52 C5.48780342,15.9222 5.05979202,16.5092 4.13483856,16.4 C2.95039316,16.2606 2.54662773,14.7312 3.33692593,13.9928 C3.7949943,13.5648 4.52437702,13.2486 5.3715831,13.104 C5.34052422,13.521 5.40524691,13.911 5.53849953,14.2766 C4.60072175,14.2504 3.60483381,14.4994 3.26118234,15.4356 C3.79258974,14.781 4.82194112,14.595 5.69339316,14.6372 C6.63838462,16.5206 9.31105128,17.7368 9.61422602,18.7128 C8.82993922,18.8692 8.30374169,19.1934 8.06789459,19.3716 C8.80809782,19.1828 9.59218424,19.0594 10.6008965,19.2046 C10.3317863,17.2814 5.06520228,15.7822 5.80500475,12.6058 C6.05107123,11.5492 7.14935328,10.6154 9.47957075,10.5932 C11.4388851,9.8384 12.4123305,10.573 12.7635964,10.956 C12.4321681,11.0482 12.2828851,11.3314 12.1991263,11.1362 C12.1037455,10.9134 12.0396239,10.796 11.5815556,10.7118 C11.1757863,10.6354 10.5710399,10.7536 10.2620541,10.744 C10.3792764,10.8814 10.7199221,10.9668 11.0499478,10.9984 C11.1675708,11.7104 11.9973438,11.3916 12.114566,11.4336 C12.4305651,11.5484 12.891038,11.731 12.6038936,12.2418 C11.4220532,12.7834 9.93182811,12.486 9.57054321,11.2742 C9.47416049,11.3274 9.44230009,11.497 9.42667047,11.6096 C8.22559354,11.421 6.43419753,12.0464 6.9032868,13.5684 C7.59920608,15.829 11.87932,16.7834 12.9940332,19.1482 C12.8463533,19.0196 12.654189,18.9154 12.4045157,18.8578 C13.0056553,19.2868 13.1541368,20.0012 13.1831918,20.4626 C13.1803865,20.488 13.1771804,20.512 13.1739744,20.5354 C13.0415233,20.2574 12.7946553,19.9646 12.3375888,19.764 C12.8946448,20.5198 12.9042631,21.138 12.8090826,21.645 C12.7363447,21.319 12.5343618,20.8642 11.9905309,20.457 C12.6177198,21.501 12.3415964,22.4902 11.6753333,23.059 C11.5466895,23.1466 11.4635318,23.1874 11.4635318,23.1874 C11.4635318,23.1874 12.1023428,21.3746 10.8587854,20.603 C11.5308594,21.9112 10.8700066,23.5228 9.81520703,23.8796 C8.55622032,25.0164 6.3877094,25.8054 5.80520513,25.8726 C3.78838177,26.9914 2.45465337,27.7408 1.10990408,29.0614 C1.28944444,28.2112 2.24184995,22.9526 7.35093542,19.6856 C1.47980532,22.3254 0.403965812,28.9612 0.448850902,30.3368 C0.946394112,29.8052 1.81363818,28.9518 3.33071415,28.1172 C3.20627825,28.4512 3.0177208,28.9912 2.89148148,29.5142 C3.21168851,28.7788 3.60723837,28.2326 3.93465907,27.86 C3.83847673,28.1676 3.71945109,28.6224 3.68198006,29.0782 C4.0029886,28.427 4.39012251,27.8636 4.68267711,27.476 C4.58088414,27.7694 4.47027445,28.175 4.40394872,28.6926 C4.63478632,28.1618 4.92954511,27.6632 5.19524881,27.2598 C6.03484046,26.9778 5.73767711,27.5734 5.73767711,27.5734 C5.73767711,27.5734 6.90308642,26.074 8.42737607,26.029 C8.02361064,26.2082 7.13212061,26.8826 7.261566,26.8348 C7.68697246,26.678 8.08552802,26.521 8.24743495,26.521 C8.82993922,26.521 8.30494397,27.1134 8.00136847,27.7524 C7.36235708,29.0948 7.09344729,29.9002 7.12691073,30.3024 C7.16558405,30.7754 6.61153371,30.5706 6.49972175,30.068 C6.49972175,30.2806 6.45463628,30.3366 6.45463628,30.6944 C6.45463628,31.0518 7.26136562,32.0246 7.32849288,32.942 C7.88875499,32.8296 7.90558689,33.1936 8.89145584,33.2384 C8.89806838,33.2384 8.90387939,33.2384 8.91029155,33.2384 C7.48458879,34.0602 6.16689079,34.7992 5.30966572,35.0586 C4.88365812,35.1874 4.41216429,35.3116 3.96471605,35.363 C4.12902754,35.0204 4.3712868,34.7404 4.66183761,34.5802 C4.15808262,33.7578 3.41828015,33.0536 2.65583476,32.64 C1.31188699,32.6064 0.549441595,34.8766 1.4461415,35.6376 C2.01862678,35.7046 3.17301519,37.6178 4.20637417,38.34 C4.4648642,38.5414 4.78807692,38.6668 5.20847388,38.6668 C5.37198386,38.6668 5.55012156,38.6482 5.74428965,38.6084 C7.38079202,38.2712 9.23330389,37.197 11.1944217,36.0598 C13.2569316,34.864 15.3727426,33.6376 17.1939953,33.3476 C17.5320361,33.9912 16.3235451,34.6782 15.8891216,34.8436 C15.6166049,34.9468 15.1942042,34.9988 15.407208,35.2598 C15.4338585,35.2948 15.4583048,35.325 15.4803466,35.3518 C16.135188,36.1724 16.784018,37.0928 17.3615128,38.4766 L17.3833542,38.5296 L17.4294416,38.5628 C18.0812773,39.0278 20.6010541,39.2478 22.1836543,39.2564 C22.1846562,39.2564 22.1856581,39.2564 22.1868604,39.2564 C22.1882631,39.2564 22.1890646,39.2564 22.190868,39.2564 C23.7730674,39.2478 26.2922431,39.0276 26.9444796,38.5628 L26.9907673,38.5296 L27.0128091,38.4766 C27.5901035,37.0928 28.2383324,36.1724 28.8939753,35.3518 C28.9150152,35.3258 28.9398623,35.2948 28.9667132,35.2598 C29.1799174,34.9988 28.7571159,34.9468 28.4852004,34.8436 C28.0509772,34.6782 26.8420855,33.991 27.1801263,33.3476 C29.0015793,33.6374 31.1169896,34.864 33.1805014,36.0598 C35.1408177,37.1972 36.9931292,38.2714 38.6298319,38.6084 C38.8242004,38.6482 39.0023381,38.6668 39.1660484,38.6668 C39.5854435,38.6668 39.9078547,38.5426 40.1667455,38.3408 C41.2005052,37.6202 42.3554948,35.7046 42.928982,35.6368 C43.8252811,34.8764 43.0630361,32.6064 41.7182868,32.64 C40.9558414,33.0536 40.2160389,33.7578 39.712284,34.5802 C40.0034359,34.7404 40.2456952,35.0204 40.4100066,35.363 C39.9625584,35.3114 39.4908642,35.1872 39.065057,35.0586 C38.2074311,34.7992 36.8903343,34.0604 35.4648319,33.2384 C35.4710437,33.2384 35.4764539,33.2384 35.4830665,33.2384 C36.4689354,33.1932 36.4859677,32.8296 37.0460294,32.942 C37.1129563,32.0246 37.919886,31.0518 37.919886,30.6944 C37.919886,30.3366 37.8750009,30.2808 37.8752013,30.068 C37.763189,30.5706 37.2083371,30.7748 37.2482127,30.3024 C37.2812754,29.9002 37.0127664,29.0948 36.373755,27.7522 C36.0695783,27.113 35.5447835,26.521 36.126887,26.521 C36.2893951,26.521 36.6875499,26.6774 37.1129563,26.8348 C37.2432032,26.8824 36.3515128,26.208 35.9473466,26.029 C37.4712355,26.0736 38.637246,27.5734 38.637246,27.5734 C38.637246,27.5734 38.3400826,26.9776 39.1796743,27.2594 C39.4455783,27.6632 39.739736,28.1618 39.970774,28.6926 C39.9042479,28.175 39.7942393,27.7694 39.6918452,27.476 C39.9848006,27.8636 40.3721349,28.427 40.6933438,29.0782 C40.6552716,28.6224 40.5366467,28.1676 40.4406648,27.86 C40.7674843,28.2326 41.1632346,28.779 41.4832412,29.5142 C41.3574027,28.9906 41.1682441,28.4512 41.0438082,28.1172 C42.5608841,28.9518 43.4275271,29.805 43.9260722,30.3366 C43.969755,28.9612 42.8937151,22.3256 37.022585,19.6858 Z M32.8981662,10.903 C33.0097778,10.903 33.0999487,10.9838 33.0999487,11.0832 C33.0999487,11.1832 33.0095774,11.264 32.8981662,11.264 C32.786755,11.264 32.6959826,11.1832 32.6959826,11.0832 C32.6957825,10.9838 32.7865546,10.903 32.8981662,10.903 Z M11.4747531,11.2642 C11.3625404,11.2642 11.272169,11.1838 11.272169,11.0832 C11.272169,10.9838 11.3625404,10.903 11.4747531,10.903 C11.5859639,10.903 11.676736,10.9838 11.676736,11.0832 C11.676736,11.1838 11.5859639,11.2642 11.4747531,11.2642 Z M34.4452991,26.1406 C34.4452991,26.1406 33.0111804,25.4698 32.518246,23.8584 C33.2352051,24.7094 34.4452991,26.1406 34.4452991,26.1406 Z M35.6321491,11.8964 C36.1693675,11.9228 36.630642,12.0618 36.9326144,12.4272 C37.0089592,12.52 37.0656667,12.622 37.1065442,12.7314 C36.5883618,12.8106 36.0449316,12.9558 35.4836676,13.1894 C35.6069012,12.7638 35.6565954,12.323 35.6321491,11.8964 Z M34.0938329,15.2068 C34.2958158,15.1188 34.9588727,14.8402 35.5209383,14.709 C35.1456268,14.6888 34.7797331,14.7566 34.5454891,14.8148 C34.6210323,14.7364 34.691566,14.656 34.7594948,14.5728 C35.0975356,14.4598 35.6125119,14.2986 36.0365157,14.2166 C35.6349544,14.1844 35.2265802,14.253 34.952661,14.3172 C35.0041586,14.2422 35.0512479,14.1658 35.0973352,14.088 C35.422151,13.971 35.8854292,13.8146 36.2717616,13.7246 C35.8663932,13.7304 35.5065109,13.7746 35.241208,13.8194 C35.2756733,13.7484 35.3095375,13.6758 35.3397949,13.6032 C35.9267075,13.3186 36.5524938,13.1468 37.1720684,13.069 C37.1897018,13.5666 36.8943419,14.1666 36.2154549,14.7542 C36.1765812,14.7878 36.1334995,14.8216 36.086811,14.8578 C34.8636923,15.2492 33.6802488,15.7142 32.7871557,15.8274 C33.2881054,15.6956 33.7235309,15.48 34.0938329,15.2068 Z M26.6913998,16.6774 C25.9485916,15.6066 25.9485916,14.5822 25.9736391,14.2446 C26.7635366,15.9954 27.9263409,18.2944 30.7248462,17.3038 C28.9997759,17.17 28.0581909,15.9386 27.8924767,15.2844 C28.8088139,15.8052 29.7407806,16.222 31.0163989,16.286 C32.3715679,16.3536 33.7018898,15.9612 35.0023552,15.541 C32.8679088,16.7844 29.3055556,18.7236 30.7927749,21.4752 C30.9272298,22.5044 31.4199639,23.4888 31.7786439,24.25 C32.1375242,25.0108 32.585774,25.548 32.7643124,25.7714 C32.9438528,25.9958 33.0672868,26.9354 31.9020779,26.8456 C30.7366686,26.7566 30.5811738,26.5992 30.3216819,26.0966 C29.9407597,25.3572 30.2771975,24.5972 30.0748139,24.3282 C29.8309516,24.0034 29.8740332,23.3372 29.6494074,23.086 C29.5991121,23.0306 29.5119468,22.9554 29.4241804,22.9282 C29.4247816,21.9402 29.4241804,21.0692 29.4233789,20.1712 C29.4227778,19.5502 29.4227778,18.9112 29.4227778,18.2074 L29.4227778,17.9738 L29.1889345,17.9732 C28.7669345,17.971 27.7119345,17.9718 26.8240513,17.9724 L26.7988034,17.929 C26.7765613,17.8912 26.2714036,17.0472 25.1120057,16.8936 C25.047283,16.5926 25.1270342,16.053 25.2378443,15.4224 C25.4943305,15.7264 26.1014815,16.3956 26.6913998,16.6774 Z M28.9482783,25.2542 C28.947076,25.575 28.9456733,25.9102 28.9438699,26.263 C28.9396619,27.101 28.6394929,28.0562 28.1561766,29.0298 L22.971548,25.2734 L22.971548,20.8206 C23.2949611,20.6308 23.6165708,20.3726 23.8726562,20.1276 L24.0267483,19.9804 L23.8706524,19.8352 C23.6808927,19.6586 23.6792896,19.4622 23.7119516,19.3274 C23.7656534,19.1014 23.9536097,18.8996 24.1672146,18.8382 C24.34415,18.7872 24.5168775,18.8382 24.6681643,18.9848 L24.8517123,19.1644 L24.9829611,18.9436 C25.1172156,18.7158 25.2755157,18.557 25.4388253,18.4444 C25.6899012,18.4438 27.9894606,18.4402 28.9526866,18.4422 C28.9526866,19.0546 28.9530874,19.6202 28.9530874,20.1716 C28.95449,21.4586 28.9554919,22.6924 28.9514843,24.2902 C28.8500921,24.3026 28.6747597,24.3288 28.4617559,24.4856 C28.6879848,24.5866 28.8372678,24.8934 28.9482783,25.2542 Z M22.1860589,35.4042 C20.6461396,34.7166 18.4672089,32.6334 17.0032336,30.3936 L22.1864596,26.6398 L27.3692849,30.3936 C25.9057104,32.6332 23.7265793,34.7166 22.1860589,35.4042 Z M25.0669202,33.8684 C25.1334463,34.4528 25.7339848,35.1324 26.0590009,35.4614 C24.953906,35.5786 23.7708632,35.631 22.7413115,35.6516 C23.4474501,35.2654 24.2583875,34.6406 25.0669202,33.8684 Z M21.6308063,35.6516 C20.6016553,35.6308 19.4184122,35.5786 18.3131168,35.4614 C18.6383333,35.1324 19.238471,34.4528 19.3049972,33.8684 C20.1139307,34.6406 20.9252688,35.2654 21.6308063,35.6516 Z M15.4212346,24.2904 C15.417227,22.6926 15.4182289,21.4588 15.4194311,20.1718 C15.4196315,19.6202 15.4200323,19.0546 15.4200323,18.4424 C16.3836591,18.4402 18.6824169,18.444 18.9342944,18.4446 C19.0972032,18.5572 19.2553029,18.716 19.3899582,18.9438 L19.5208063,19.165 L19.7043542,18.9848 C19.8554406,18.8382 20.0289696,18.7872 20.2057047,18.8382 C20.4197104,18.8996 20.6068651,19.1014 20.6607673,19.3274 C20.6932289,19.4622 20.6910247,19.6586 20.5020665,19.8352 L20.3459706,19.9804 L20.5002631,20.1276 C20.7561481,20.3732 21.0785594,20.6316 21.402774,20.8222 L21.402774,25.2726 L16.2167426,29.0298 C15.7326249,28.0562 15.4324558,27.101 15.4282479,26.263 C15.4270456,25.9102 15.4256429,25.575 15.4242403,25.2542 C15.5342488,24.8934 15.684133,24.5866 15.9107626,24.4858 C15.6979592,24.3292 15.5230275,24.3028 15.4212346,24.2904 Z M19.8474255,13.3354 C20.0664406,13.3968 20.2469829,13.4486 20.3171159,13.468 C21.4087854,13.8 22.1848566,14.1944 22.1848566,14.1944 L22.1860589,14.19 L22.1870608,14.1944 C22.1870608,14.1944 22.9629316,13.8 24.0546011,13.468 C24.1251349,13.4488 24.3056771,13.397 24.5252934,13.3354 C24.5858082,13.3192 24.6463229,13.3034 24.7082403,13.2884 C24.7060361,13.2874 24.7042327,13.2864 24.7024292,13.2856 C24.7246714,13.2792 24.7475147,13.2726 24.7693561,13.2666 C24.8623324,13.2398 25.1370532,12.9882 25.2156021,12.6332 L25.2156021,12.6332 C25.1689136,13.5122 25.0174264,14.361 24.8923894,15.0612 C24.7481159,15.8716 24.6391092,16.4928 24.7104444,16.9198 C24.455962,16.9956 24.2311358,17.1026 24.0303552,17.2312 C24.0461852,16.8344 24.1058984,15.9224 24.338339,14.7646 C23.6893086,15.348 23.5927255,17.0172 23.5788993,17.576 C23.3839297,17.75 23.2104008,17.9348 23.0454881,18.1118 C22.7407104,18.4366 22.4756078,18.7182 22.1860589,18.8058 C21.89651,18.7182 21.6314074,18.4366 21.3270304,18.1118 C21.1615166,17.9348 20.988188,17.7498 20.7932184,17.576 C20.7795926,17.0172 20.6828091,15.3478 20.0339791,14.7652 C20.2662194,15.9224 20.3265337,16.8344 20.3417626,17.2312 C20.1411823,17.1026 19.9161557,16.9958 19.6620741,16.9198 C19.7330085,16.4928 19.6240019,15.8714 19.4799288,15.0612 C19.3548917,14.361 19.2040057,13.5122 19.156716,12.6332 L19.156716,12.6332 C19.2348642,12.9882 19.5101861,13.2396 19.6025613,13.2666 C19.6248034,13.273 19.6476467,13.2792 19.6694881,13.2856 C19.6680855,13.2864 19.6658813,13.2878 19.6640779,13.289 C19.7265964,13.3036 19.7871111,13.3196 19.8474255,13.3354 Z M19.5903381,17.3154 C20.2173267,17.5186 20.6499468,17.9776 21.0330731,18.3868 C21.3739193,18.7504 21.6973324,19.0948 22.1103153,19.2024 C22.1277483,19.2088 22.1447806,19.2132 22.1600095,19.2146 C22.1672232,19.2162 22.1758395,19.217 22.1868604,19.217 C22.1968794,19.217 22.2048946,19.2162 22.2121083,19.2154 C22.2275375,19.2132 22.2447702,19.209 22.2634055,19.2026 C22.6755869,19.0946 22.9985992,18.7506 23.339245,18.387 C23.7167607,17.985 24.1403637,17.534 24.7513219,17.326 C24.8697464,17.281 24.9434862,17.281 24.9434862,17.281 C25.5229848,17.3276 25.9179335,17.5768 26.158189,17.794 C25.7155499,17.8212 25.1651064,18.0052 24.7613409,18.5488 C24.5447303,18.4154 24.300868,18.38 24.0548015,18.451 C23.7029345,18.5532 23.4069734,18.8674 23.319207,19.2344 C23.2572896,19.495 23.3053808,19.7528 23.4536619,19.9664 C22.9853742,20.3834 22.4922393,20.6714 22.1860589,20.7022 C21.8796781,20.671 21.3871443,20.3834 20.9186562,19.9664 C21.0665366,19.7528 21.1154292,19.495 21.0533115,19.2344 C20.9651443,18.8676 20.6699848,18.5532 20.3175166,18.452 C20.0714501,18.3802 19.8273875,18.4156 19.6111776,18.5496 C19.2070114,18.0052 18.6563675,17.8214 18.2143295,17.7948 C18.4543846,17.5772 18.8497341,17.3288 19.4288319,17.2812 C19.4286315,17.2808 19.4689079,17.2766 19.5903381,17.3154 Z M22.1299525,21.1008 L22.1195328,21.1056 L22.1067085,21.0972 C22.1143229,21.0988 22.1223381,21.1002 22.1299525,21.1008 Z M24.7240703,5.2308 L24.9595166,4.8164 L25.198169,5.2308 C25.198169,5.2308 25.1973675,5.5932 25.196566,6.1024 L24.7238699,6.1024 C24.7240703,5.595 24.7240703,5.2308 24.7240703,5.2308 Z M24.7240703,6.3844 L25.1967664,6.3844 C25.1967664,6.6208 25.1967664,6.876 25.1961652,7.134 L24.7232688,7.134 C24.7230684,6.8768 24.7230684,6.6212 24.7240703,6.3844 Z M24.7230684,7.4 L25.1959649,7.4 C25.1951633,8.363 25.1945622,9.2852 25.1951633,9.3002 C25.0593058,9.2542 24.8785632,9.2034 24.7230684,9.1676 C24.722868,9.1234 24.7230684,8.2894 24.7230684,7.4 Z M24.5779934,9.5532 C24.8026192,9.6046 25.0126173,9.6612 25.1933599,9.7214 C25.6017341,9.8574 25.7975052,10.2586 25.7229639,10.5478 C25.6676591,10.764 25.4704853,10.8568 25.1697151,10.816 C24.806226,10.4522 24.8627331,9.9368 24.4535575,9.525 C24.4766011,9.5302 24.5779934,9.5532 24.5779934,9.5532 Z M24.7679535,11.891 C24.7974093,12.1472 24.7843846,12.3158 24.7463124,12.4446 C24.5848063,12.1344 24.1914606,11.5704 23.3466591,11.2416 C23.9502032,11.6586 24.253378,12.4006 24.3898367,12.8826 C24.3239117,12.906 24.244962,12.9286 24.1577968,12.9494 C24.0706315,12.899 23.9758519,12.8484 23.8680475,12.7964 C22.8929991,12.8802 22.1872612,13.3138 22.1872612,13.3138 L22.1862593,13.3178 L22.1856581,13.314 C22.1856581,13.314 21.4801206,12.8802 20.5046714,12.7962 C20.3966667,12.8482 20.3024881,12.8986 20.2153229,12.9492 C20.1275565,12.9284 20.0484065,12.9058 19.9828822,12.8824 C20.1189402,12.4008 20.422716,11.6588 21.0256591,11.2414 C20.1814587,11.5702 19.7877123,12.134 19.6268072,12.445 C19.588735,12.3158 19.5757104,12.147 19.6043647,11.8908 C19.9726629,11.3804 20.4092906,11.0394 21.0559164,10.8746 C21.3366486,10.8318 21.6288025,10.7986 21.9674444,10.781 C21.9844767,11.0602 22.0518044,12.0582 22.1820513,13.019 C22.1834539,13.0304 22.1842555,13.042 22.1854577,13.0534 C22.1858585,13.0518 22.1860589,13.0506 22.1860589,13.049 C22.1864596,13.0506 22.18666,13.0518 22.1870608,13.0534 C22.1876619,13.042 22.1884634,13.0304 22.1902669,13.0196 C22.3209145,12.058 22.3878414,11.0592 22.4050741,10.781 C22.7441168,10.7986 23.0356695,10.8318 23.3166021,10.8746 C23.9634283,11.0396 24.3994549,11.3806 24.7679535,11.891 Z M23.3628898,9.3436 C23.8432004,9.7256 23.8782669,10.2982 24.1231311,10.605 C23.9455945,10.56 23.759642,10.5274 23.5648727,10.5076 C23.3981567,10.4784 23.2298376,10.4534 23.0527018,10.4322 C22.6613599,10.1068 22.6274957,9.5712 22.0618234,9.2642 C22.1059069,9.2632 22.1493894,9.2624 22.192471,9.2624 C22.5485461,9.2638 22.9539145,9.2938 23.3628898,9.3436 Z M22.6477341,8.8744 C22.6493371,8.7068 22.6521425,8.4764 22.6577531,8.2126 C22.6627626,7.9402 23.1003922,7.7346 23.1003922,7.7346 L23.1005926,7.7358 C23.1052013,7.7388 23.5370199,7.9434 23.5430313,8.214 C23.5494435,8.5258 23.5522488,8.79 23.55285,8.9602 C23.2468699,8.9206 22.9398879,8.8906 22.6477341,8.8744 Z M20.5717987,1.5114 C20.5499573,1.1642 20.5217037,0.6832 20.7910142,0.3976 C20.9192574,0.2806 21.0985973,0.292 21.2725271,0.2884 C21.4600826,0.2852 21.6235926,0.3346 21.7037445,0.4144 C21.9393913,0.6498 21.8834853,1.2994 21.9079316,1.4188 C21.9393913,1.5674 22.0255546,1.6202 22.0762507,1.6704 C22.5287085,2.0958 23.1009934,2.7236 23.4867246,3.9668 C23.1669183,3.7248 22.7042412,3.2292 22.1974805,2.713 C22.3293305,3.4496 23.7951092,4.7374 23.7951092,4.7374 C23.7951092,4.7374 21.468699,3.4576 21.6925233,2.0708 C21.1438832,2.5632 21.5187939,3.5476 21.8045356,3.7822 C21.7939155,3.939 21.7714729,4.0174 21.7714729,4.2294 C20.079265,3.2458 20.4499677,1.9686 20.5717987,1.5114 Z M22.2976705,5.605 C22.2976705,5.605 22.4541671,5.4882 22.6052536,5.3698 C22.7196705,5.5348 22.8952032,5.917 23.0801538,6.3544 L22.3092925,6.3544 C22.2612013,6.3228 22.2261349,6.279 22.2311443,6.2228 C22.270018,5.8346 22.2976705,5.605 22.2976705,5.605 Z M22.1405726,5.1916 C22.1181301,5.102 21.9502118,4.6998 21.984076,4.1402 C22.4880313,4.4646 22.4541671,5.024 22.4541671,5.024 C22.4541671,5.024 22.2922602,5.1916 22.1405726,5.1916 Z M21.5474482,5.6278 C21.6704815,5.5382 21.9391909,5.381 21.9391909,5.381 C21.9391909,5.381 21.989887,5.88 21.7975223,6.3546 L21.5771045,6.3546 L21.5047673,6.2348 C21.5047673,6.2346 21.4123922,5.7504 21.5474482,5.6278 Z M21.4292241,4.3304 C21.5300152,4.3972 21.6366173,4.4476 21.7985242,4.5154 C21.8273789,4.671 21.8550313,4.8392 21.8718632,4.9452 C21.7484292,5.1686 21.5688889,5.2032 21.5688889,5.2032 C21.5688889,5.2032 21.4969525,4.9678 21.4292241,4.3304 Z M20.1475945,7.144 L24.224924,7.1434 L24.224924,7.4062 L20.1475945,7.4062 L20.1475945,7.144 L20.1475945,7.144 Z M21.724584,8.8744 C21.4322298,8.8906 21.1254482,8.9204 20.8194682,8.9602 C20.8202697,8.79 20.8234758,8.5256 20.8298879,8.214 C20.8358993,7.9438 21.2669164,7.739 21.2719259,7.7358 L21.2721263,7.7346 C21.2721263,7.7346 21.7093552,7.9402 21.7151662,8.2126 C21.7201757,8.4768 21.722981,8.7068 21.724584,8.8744 Z M21.0501054,9.338 C21.5628775,9.5972 21.7221795,10.0912 21.9704501,10.3786 C21.6071614,10.396 21.2953704,10.431 20.9988082,10.4762 C20.5836211,10.232 20.4493666,9.7486 19.9097436,9.5274 C20.2684236,9.4488 20.6611681,9.3844 21.0501054,9.338 Z M19.6580665,9.1694 C19.5013694,9.2042 19.3214283,9.256 19.1847692,9.3012 C19.1861719,9.286 19.1847692,8.3652 19.1847692,7.4026 L19.6574653,7.4026 C19.6580665,8.2906 19.6580665,9.1244 19.6580665,9.1694 Z M19.6574653,7.1366 L19.1839677,7.1366 C19.1839677,6.8784 19.1837673,6.6238 19.1831662,6.3874 L19.6568642,6.3874 C19.6568642,6.624 19.6568642,6.8796 19.6574653,7.1366 Z M19.4214179,4.8178 L19.6566638,5.2324 C19.6566638,5.2324 19.6566638,5.5972 19.6566638,6.105 L19.1829658,6.105 C19.1823647,5.5954 19.1823647,5.2324 19.1823647,5.2324 L19.4214179,4.8178 Z M18.6491538,10.5478 C18.5864349,10.304 18.7174834,9.982 19.0056296,9.8054 C19.482133,10.0224 19.7033523,10.4662 19.9987123,10.6644 C19.7732849,10.7104 19.5316268,10.7594 19.2587094,10.8088 C18.9248765,10.8698 18.7082659,10.7774 18.6491538,10.5478 Z M7.4397037,12.4272 C7.7422773,12.0624 8.20295062,11.923 8.73996866,11.8964 C8.71632384,12.323 8.76501614,12.7638 8.88905128,13.1894 C8.32718613,12.956 7.78435708,12.8106 7.26617474,12.7318 C7.30645109,12.6222 7.36315859,12.52 7.4397037,12.4272 Z M8.15686325,14.754 C7.4785774,14.1674 7.18281671,13.5674 7.20004938,13.0694 C7.81962393,13.1474 8.44581102,13.3184 9.03292403,13.603 C9.06318139,13.6756 9.09624406,13.7482 9.13131054,13.8192 C8.8660076,13.7744 8.50612536,13.7302 8.10095726,13.7252 C8.48668851,13.8146 8.95016714,13.9712 9.27498291,14.088 C9.32107028,14.1656 9.36835992,14.242 9.41925641,14.3172 C9.14593827,14.253 8.7375641,14.1844 8.33640361,14.217 C8.75980627,14.2986 9.27518329,14.4598 9.61322412,14.5728 C9.68075214,14.6562 9.75128585,14.7374 9.82722982,14.8148 C9.592585,14.7566 9.22649098,14.6888 8.85178063,14.709 C9.41384615,14.84 10.0771035,15.1188 10.278886,15.2072 C10.6487873,15.4802 11.0850142,15.6956 11.5857635,15.827 C10.6924701,15.7142 9.50942735,15.2496 8.28690978,14.8584 C8.23901899,14.8228 8.19593732,14.7876 8.15686325,14.754 Z M12.594075,24.2502 C12.952755,23.489 13.4456895,22.5046 13.579944,21.4754 C15.0667626,18.7236 11.5052108,16.785 9.37016334,15.5412 C10.6702279,15.9614 12.0009506,16.3536 13.3553181,16.2862 C14.6317379,16.2222 15.5633039,15.8056 16.4802422,15.2846 C16.3139269,15.9388 15.372943,17.1702 13.647472,17.304 C16.446378,18.2946 17.6091823,15.9956 18.398679,14.2448 C18.4237265,14.5824 18.4233257,15.6068 17.6813191,16.6776 C18.2706363,16.3956 18.8779877,15.7266 19.1342735,15.4228 C19.2444824,16.0534 19.3248348,16.593 19.2607132,16.894 C18.1005138,17.0478 17.5953561,17.8916 17.5735147,17.9294 L17.5484672,17.9728 C16.6599829,17.9722 15.6049829,17.9714 15.1837844,17.9736 L14.9495404,17.9746 L14.9495404,18.2084 C14.9495404,18.9116 14.9487388,19.5506 14.9483381,20.1716 C14.9471358,21.0696 14.9471358,21.9406 14.9477369,22.929 C14.8605717,22.9566 14.7728053,23.031 14.7229107,23.0864 C14.4978841,23.3376 14.5417673,24.0038 14.2971035,24.3286 C14.0951206,24.5976 14.4317588,25.3576 14.0504359,26.097 C13.790944,26.5996 13.63585,26.757 12.470641,26.8464 C11.3052317,26.9358 11.4286657,25.9962 11.6078053,25.7722 C11.7871453,25.5482 12.2355954,25.011 12.594075,24.2502 Z M11.8544729,23.8584 C11.3615385,25.4698 9.92721937,26.1412 9.92721937,26.1412 C9.92721937,26.1412 11.1373134,24.7094 11.8544729,23.8584 Z M7.89877398,31.7126 C7.69739221,31.1084 7.79798291,30.0682 8.11177778,29.4862 C8.3245812,29.0912 8.8062944,28.4448 9.16377208,28.1254 C9.33289269,27.9736 9.7308471,27.6852 10.353227,26.8962 C10.2017398,27.4672 9.89856505,27.7694 9.66412061,28.0878 C9.71181102,28.1554 9.84847009,28.3116 9.98312536,28.3564 C10.2522355,28.4462 11.4513086,27.73 13.7815261,27.5736 C13.8490541,27.2372 14.5437711,27.0138 14.9697787,26.8572 C14.9797977,26.8538 14.9900171,26.8464 14.9994349,26.8378 C15.1425062,27.9414 15.6570817,29.0744 16.2393856,30.0542 C15.2144425,29.9482 13.6729202,30.605 11.981113,31.5046 C11.8242156,31.367 11.4501064,31.1154 11.1152716,31.489 C10.8237189,31.6452 10.0626762,32.0874 9.27778822,32.2934 C8.31897056,32.5458 8.01319088,32.0544 7.89877398,31.7126 Z M10.9906353,35.7118 C9.05877303,36.8322 7.23411396,37.891 5.66233428,38.2142 C5.07742545,38.335 4.68448053,38.2364 4.38451187,37.9664 C4.28191738,37.8646 4.1921472,37.757 4.11480057,37.6456 C4.11219563,37.6416 4.10939031,37.6374 4.10638462,37.6324 C4.09596486,37.6182 4.08654701,37.6024 4.07652802,37.5866 C4.03124217,37.5142 3.98796011,37.4358 3.9462811,37.3532 C3.70382146,36.844 3.68097816,36.2776 3.81102469,35.7812 C4.35004653,35.7434 4.91932574,35.5984 5.42568566,35.445 C6.41476068,35.1462 7.93744729,34.2666 9.54890218,33.3352 C9.65390123,33.2744 9.75990218,33.2136 9.86610351,33.152 C10.0698898,33.1086 10.1586581,33.094 10.2183713,33.2394 C10.4932925,33.077 10.5049145,32.9372 10.5379772,32.82 C10.8070874,32.6686 11.1262925,32.4508 11.2603466,32.6354 C11.3242678,32.4858 11.3314815,32.3892 11.3200598,32.3256 C13.4494967,31.1418 15.5991719,30.1146 16.5417588,30.5424 C16.9084539,31.1092 17.280359,31.6052 17.5871406,31.989 C17.8382165,32.3032 18.0987104,32.6086 18.3638129,32.9008 C16.1932982,32.6958 13.5524919,34.2272 10.9906353,35.7118 Z M28.2820152,35.503 C27.7157417,36.312 27.1626933,37.0776 26.6639478,38.2656 C26.0878557,38.604 23.8798699,38.8466 22.1860589,38.8552 C20.4922479,38.8466 18.2842621,38.604 17.7085708,38.2656 C17.2098253,37.0776 16.6569772,36.3118 16.0907037,35.5032 C17.758265,35.9268 20.1972887,36.0112 22.1852574,36.0318 L22.1858585,36.028 L22.1868604,36.0318 C24.1750294,36.0114 26.6142536,35.927 28.2820152,35.503 Z M38.9466325,35.4446 C39.4535935,35.598 40.0226724,35.7428 40.5616942,35.7808 C40.6921415,36.278 40.6688974,36.8444 40.4254359,37.3536 C40.3841576,37.4354 40.3416771,37.5122 40.2977939,37.5834 C40.2863723,37.6006 40.2759525,37.6178 40.2647312,37.635 C40.2629278,37.6378 40.260924,37.6402 40.2589202,37.6438 C40.1819744,37.7554 40.091603,37.8642 39.9888082,37.9662 C39.6882384,38.2356 39.2954938,38.3342 38.7097835,38.214 C37.1384046,37.8908 35.3141462,36.832 33.3816828,35.7116 C30.8198262,34.227 28.1792203,32.6956 26.0079041,32.9002 C26.2740085,32.608 26.5341016,32.3028 26.785378,31.9884 C27.0923599,31.6044 27.464265,31.1084 27.8309601,30.5416 C28.7733466,30.114 30.9228215,31.1412 33.0530598,32.325 C33.0406363,32.3884 33.0486515,32.4852 33.1123723,32.6348 C33.2464264,32.45 33.5660323,32.668 33.8351425,32.8194 C33.8684055,32.9366 33.8790256,33.0764 34.1535461,33.2388 C34.2144615,33.0934 34.3026287,33.1082 34.5062146,33.1514 C34.612416,33.2122 34.7188177,33.2738 34.8232156,33.3346 C36.4352716,34.2662 37.958359,35.1458 38.9466325,35.4446 Z M36.26034,29.4864 C36.5745356,30.0684 36.6745252,31.1086 36.4733438,31.7122 C36.3589269,32.0546 36.0529468,32.5458 35.0951311,32.2936 C34.3102431,32.0876 33.5485992,31.6454 33.2570465,31.4892 C32.9230133,31.1154 32.5481026,31.3672 32.3918063,31.5044 C30.6995983,30.6052 29.1578756,29.9484 28.1335337,30.0544 C28.7152365,29.0746 29.2300123,27.9416 29.3734843,26.838 C29.3833029,26.8466 29.3925204,26.854 29.4029402,26.8574 C29.8287474,27.014 30.5240655,27.2374 30.590792,27.5738 C32.9212099,27.7302 34.1204834,28.4464 34.3893932,28.3566 C34.5240484,28.3118 34.6609079,28.1556 34.7089991,28.088 C34.4735527,27.7696 34.1705783,27.4674 34.0194919,26.8964 C34.6416714,27.6854 35.0396258,27.974 35.2087464,28.1256 C35.5658234,28.445 36.0475366,29.0914 36.26034,29.4864 Z" id="Shape"></path>
            </g>
        </g>
    </g>
</svg>