<?xml version="1.0" encoding="UTF-8"?>
<svg width="85px" height="120px" viewBox="0 0 85 120" version="1.1" xmlns="http://www.w3.org/2000/svg" xmlns:xlink="http://www.w3.org/1999/xlink">
    <!-- Generator: Sketch 52.6 (67491) - http://www.bohemiancoding.com/sketch -->
    <title>CSS3_logo_and_wordmark</title>
    <desc>Created with Sketch.</desc>
    <g id="Page-1" stroke="none" stroke-width="1" fill="none" fill-rule="evenodd">
        <g id="Desktop-HD-Copy-2" transform="translate(-370.000000, -4441.000000)">
            <g id="CSS3_logo_and_wordmark" transform="translate(370.000000, 4441.000000)">
                <polygon id="polygon2989" fill="#264DE4" points="85.0157812 23.5828125 77.270625 110.348203 42.4558594 120 7.73695312 110.361797 -2.84217094e-14 23.5828125"></polygon>
                <polygon id="polygon2991" fill="#2965F1" points="70.6399219 104.823281 77.2586719 30.6782812 42.5078906 30.6782812 42.5078906 112.622578"></polygon>
                <polygon id="polygon2993" fill="#EBEBEB" points="17.7367969 62.8633594 18.6907031 73.5063281 42.5078906 73.5063281 42.5078906 62.8633594"></polygon>
                <polygon id="polygon2995" fill="#EBEBEB" points="42.5078906 41.3214844 42.4710937 41.3214844 15.8200781 41.3214844 16.7875781 51.9646875 42.5078906 51.9646875"></polygon>
                <polygon id="polygon2997" fill="#EBEBEB" points="42.5078906 101.577891 42.5078906 90.5046094 42.46125 90.5170312 30.6079687 87.3164062 29.8502344 78.8280469 24.0904687 78.8280469 19.16625 78.8280469 20.6573437 95.5392187 42.4589062 101.591484"></polygon>
                <polygon id="path2999" fill="#FFFFFF" points="20.0078906 0 32.8985156 0 32.8985156 5.390625 25.3985156 5.390625 25.3985156 10.78125 32.8985156 10.78125 32.8985156 16.171875 20.0078906 16.171875"></polygon>
                <polygon id="path3001" fill="#FFFFFF" points="35.4766406 0 48.3672656 0 48.3672656 4.6875 40.8672656 4.6875 40.8672656 5.625 48.3672656 5.625 48.3672656 16.40625 35.4766406 16.40625 35.4766406 11.484375 42.9766406 11.484375 42.9766406 10.546875 35.4766406 10.546875"></polygon>
                <polygon id="path3003" fill="#FFFFFF" points="50.9453906 0 63.8360156 0 63.8360156 4.6875 56.3360156 4.6875 56.3360156 5.625 63.8360156 5.625 63.8360156 16.40625 50.9453906 16.40625 50.9453906 11.484375 58.4453906 11.484375 58.4453906 10.546875 50.9453906 10.546875"></polygon>
                <polygon id="polygon3005" fill="#FFFFFF" points="55.576875 73.5063281 54.3414844 87.3096094 42.4710937 90.5135156 42.4710937 101.586328 64.29 95.5392187 64.4500781 93.7410937 66.9510937 65.7213281 67.2107812 62.8633594 69.1321875 41.3214844 42.4710937 41.3214844 42.4710937 51.9646875 57.4682812 51.9646875 56.4998437 62.8633594 42.4710937 62.8633594 42.4710937 73.5063281"></polygon>
            </g>
        </g>
    </g>
</svg>