<?xml version="1.0" encoding="UTF-8"?>
<svg width="113px" height="120px" viewBox="0 0 113 120" version="1.1" xmlns="http://www.w3.org/2000/svg" xmlns:xlink="http://www.w3.org/1999/xlink">
    <!-- Generator: Sketch 52.6 (67491) - http://www.bohemiancoding.com/sketch -->
    <title>angular</title>
    <desc>Created with Sketch.</desc>
    <g id="Page-1" stroke="none" stroke-width="1" fill="none" fill-rule="evenodd">
        <g id="Desktop-HD-Copy-2" transform="translate(-425.000000, -5355.000000)">
            <g id="angular" transform="translate(425.000000, 5355.000000)">
                <polygon id="Path" fill="#DD0031" points="56.5 0 56.5 0 56.5 0 0.540957447 19.92 9.07606383 93.78 56.5 120 56.5 120 56.5 120 103.923936 93.78 112.459043 19.92"></polygon>
                <polygon id="Path" fill="#C3002F" points="56.5 0 56.5 13.32 56.5 13.26 56.5 74.04 56.5 74.04 56.5 120 56.5 120 103.923936 93.78 112.459043 19.92"></polygon>
                <path d="M56.5,13.26 L21.5180851,91.56 L34.5611702,91.56 L41.593617,74.04 L71.2861702,74.04 L78.318617,91.56 L91.3617021,91.56 L56.5,13.26 Z M66.7180851,63.24 L46.2819149,63.24 L56.5,38.7 L66.7180851,63.24 Z" id="Shape" fill="#FFFFFF" fill-rule="nonzero"></path>
            </g>
        </g>
    </g>
</svg>