<?xml version="1.0" encoding="UTF-8"?>
<svg width="100px" height="100px" viewBox="0 0 100 100" version="1.1" xmlns="http://www.w3.org/2000/svg" xmlns:xlink="http://www.w3.org/1999/xlink">
    <!-- Generator: Sketch 52.6 (67491) - http://www.bohemiancoding.com/sketch -->
    <title>g100</title>
    <desc>Created with Sketch.</desc>
    <defs>
        <path d="M49.9747692,100 C22.3746923,100 0,77.6138462 0,49.9996923 C0,24.646 18.8620769,3.70312308 43.3119231,0.443209231 L43.3119231,10.5183077 C43.3119231,13.3593846 41.521,15.9122308 38.8293077,16.8160769 C24.7223846,21.5576923 14.6303846,35.0477692 15.0020769,50.8434615 C15.4546154,70.073 31.1111538,85.1923077 50.3356154,84.9984615 C69.4897692,84.8046154 84.9576923,69.2094615 84.9576923,49.9996923 C84.9576923,49.5619231 84.9469231,49.1262308 84.9307692,48.6929231 C84.9269231,48.5958462 84.9238462,48.4979231 84.92,48.4005385 C84.9015385,47.9979231 84.8769231,47.5961538 84.8453846,47.1968462 C84.8361538,47.0696923 84.8230769,46.9429231 84.8115385,46.8160769 C84.7869231,46.5372308 84.7584615,46.2602308 84.7269231,45.9837692 C84.6915385,45.6697692 84.6507692,45.3575385 84.6069231,45.0468462 C84.5876923,44.9047692 84.5684615,44.7623077 84.5469231,44.6213846 C80.2638462,16.3939231 43.5174615,0.529146923 43.3157692,0.442307692 C45.4949231,0.152343846 47.7172308,0 49.9747692,0 C77.5753846,0 99.95,22.3855385 99.95,49.9996923 C99.95,77.6138462 77.5753846,100 49.9747692,100" id="path-1"></path>
    </defs>
    <g id="Page-1" stroke="none" stroke-width="1" fill="none" fill-rule="evenodd">
        <g id="Desktop-HD-Copy-2" transform="translate(-706.000000, -10857.000000)">
            <g id="Group-7" transform="translate(220.000000, 10772.000000)">
                <g id="g100" transform="translate(486.000000, 85.000000)">
                    <g id="g102-Clipped">
                        <mask id="mask-2" fill="white">
                            <use xlink:href="#path-1"></use>
                        </mask>
                        <g id="path104"></g>
                        <g id="g102" mask="url(#mask-2)" fill="#5FCAF4">
                            <g transform="translate(-7.615385, -7.615385)" id="path108">
                                <polyline points="0.0276461538 0.0276461538 115.153077 0.0276461538 115.153077 115.203077 0.0276461538 115.203077 0.0276461538 0.0276461538"></polyline>
                            </g>
                        </g>
                    </g>
                </g>
            </g>
        </g>
    </g>
</svg>