<?xml version="1.0" encoding="UTF-8"?>
<svg width="98px" height="100px" viewBox="0 0 98 100" version="1.1" xmlns="http://www.w3.org/2000/svg" xmlns:xlink="http://www.w3.org/1999/xlink">
    <!-- Generator: Sketch 52.6 (67491) - http://www.bohemiancoding.com/sketch -->
    <title>Google__G__Logo</title>
    <desc>Created with Sketch.</desc>
    <defs>
        <path d="M96.8604651,40.9090909 L50.1395349,40.9090909 L50.1395349,60.2272727 L77.0325581,60.2272727 C74.5255814,72.5 64.0418605,79.5454545 50.1395349,79.5454545 C33.7302326,79.5454545 20.5116279,66.3636364 20.5116279,50 C20.5116279,33.6363636 33.7302326,20.4545455 50.1395349,20.4545455 C57.2046512,20.4545455 63.5860465,22.9545455 68.6,27.0454545 L83.1860465,12.5 C74.2976744,4.77272727 62.9023256,0 50.1395349,0 C22.3348837,0 0,22.2727273 0,50 C0,77.7272727 22.3348837,100 50.1395349,100 C75.2093023,100 98,81.8181818 98,50 C98,47.0454545 97.544186,43.8636364 96.8604651,40.9090909 Z" id="path-1"></path>
        <path d="M96.8604651,40.9090909 L50.1395349,40.9090909 L50.1395349,60.2272727 L77.0325581,60.2272727 C74.5255814,72.5 64.0418605,79.5454545 50.1395349,79.5454545 C33.7302326,79.5454545 20.5116279,66.3636364 20.5116279,50 C20.5116279,33.6363636 33.7302326,20.4545455 50.1395349,20.4545455 C57.2046512,20.4545455 63.5860465,22.9545455 68.6,27.0454545 L83.1860465,12.5 C74.2976744,4.77272727 62.9023256,0 50.1395349,0 C22.3348837,0 0,22.2727273 0,50 C0,77.7272727 22.3348837,100 50.1395349,100 C75.2093023,100 98,81.8181818 98,50 C98,47.0454545 97.544186,43.8636364 96.8604651,40.9090909 Z" id="path-3"></path>
        <path d="M96.8604651,40.9090909 L50.1395349,40.9090909 L50.1395349,60.2272727 L77.0325581,60.2272727 C74.5255814,72.5 64.0418605,79.5454545 50.1395349,79.5454545 C33.7302326,79.5454545 20.5116279,66.3636364 20.5116279,50 C20.5116279,33.6363636 33.7302326,20.4545455 50.1395349,20.4545455 C57.2046512,20.4545455 63.5860465,22.9545455 68.6,27.0454545 L83.1860465,12.5 C74.2976744,4.77272727 62.9023256,0 50.1395349,0 C22.3348837,0 0,22.2727273 0,50 C0,77.7272727 22.3348837,100 50.1395349,100 C75.2093023,100 98,81.8181818 98,50 C98,47.0454545 97.544186,43.8636364 96.8604651,40.9090909 Z" id="path-5"></path>
        <path d="M96.8604651,40.9090909 L50.1395349,40.9090909 L50.1395349,60.2272727 L77.0325581,60.2272727 C74.5255814,72.5 64.0418605,79.5454545 50.1395349,79.5454545 C33.7302326,79.5454545 20.5116279,66.3636364 20.5116279,50 C20.5116279,33.6363636 33.7302326,20.4545455 50.1395349,20.4545455 C57.2046512,20.4545455 63.5860465,22.9545455 68.6,27.0454545 L83.1860465,12.5 C74.2976744,4.77272727 62.9023256,0 50.1395349,0 C22.3348837,0 0,22.2727273 0,50 C0,77.7272727 22.3348837,100 50.1395349,100 C75.2093023,100 98,81.8181818 98,50 C98,47.0454545 97.544186,43.8636364 96.8604651,40.9090909 Z" id="path-7"></path>
    </defs>
    <g id="Page-1" stroke="none" stroke-width="1" fill="none" fill-rule="evenodd">
        <g id="Desktop-HD-Copy-2" transform="translate(-388.000000, -10857.000000)">
            <g id="Group-7" transform="translate(220.000000, 10772.000000)">
                <g id="Google__G__Logo" transform="translate(168.000000, 85.000000)">
                    <g id="Clipped">
                        <mask id="mask-2" fill="white">
                            <use xlink:href="#path-1"></use>
                        </mask>
                        <g id="a"></g>
                        <polygon id="Path" fill="#FBBC05" mask="url(#mask-2)" points="-4.55813953 79.5454545 -4.55813953 20.4545455 34.1860465 50"></polygon>
                    </g>
                    <g id="Clipped">
                        <mask id="mask-4" fill="white">
                            <use xlink:href="#path-3"></use>
                        </mask>
                        <g id="a"></g>
                        <polygon id="Path" fill="#EA4335" mask="url(#mask-4)" points="-4.55813953 20.4545455 34.1860465 50 50.1395349 36.1363636 104.837209 27.2727273 104.837209 -4.54545455 -4.55813953 -4.54545455"></polygon>
                    </g>
                    <g id="Clipped">
                        <mask id="mask-6" fill="white">
                            <use xlink:href="#path-5"></use>
                        </mask>
                        <g id="a"></g>
                        <polygon id="Path" fill="#34A853" mask="url(#mask-6)" points="-4.55813953 79.5454545 63.8139535 27.2727273 81.8186047 29.5454545 104.837209 -4.54545455 104.837209 104.545455 -4.55813953 104.545455"></polygon>
                    </g>
                    <g id="Clipped">
                        <mask id="mask-8" fill="white">
                            <use xlink:href="#path-7"></use>
                        </mask>
                        <g id="a"></g>
                        <polygon id="Path" fill="#4285F4" mask="url(#mask-8)" points="104.837209 104.545455 34.1860465 50 25.0697674 43.1818182 104.837209 20.4545455"></polygon>
                    </g>
                </g>
            </g>
        </g>
    </g>
</svg>