<?xml version="1.0" encoding="UTF-8"?>
<svg width="86px" height="120px" viewBox="0 0 86 120" version="1.1" xmlns="http://www.w3.org/2000/svg" xmlns:xlink="http://www.w3.org/1999/xlink">
    <title>logo-html</title>
    <g id="Page-1" stroke="none" stroke-width="1" fill="none" fill-rule="evenodd">
        <g id="Desktop-HD-Copy-2" transform="translate(-223.000000, -4441.000000)">
            <g id="logo-html" transform="translate(223.000000, 4441.000000)">
                <path d="M8.0625,0 L13.453125,0 L13.453125,5.34375 L18.421875,5.34375 L18.421875,0 L23.8125,0 L23.8125,16.171875 L18.421875,16.171875 L18.421875,10.78125 L13.5,10.78125 L13.5,16.171875 L8.0625,16.171875 M30.9375,5.390625 L26.1796875,5.390625 L26.1796875,0 L41.109375,0 L41.109375,5.390625 L36.328125,5.390625 L36.328125,16.171875 L30.9375,16.171875 M43.4765625,0 L49.125,0 L52.59375,5.6953125 L56.0625,0 L61.7109375,0 L61.7109375,16.171875 L56.3203125,16.171875 L56.3203125,8.15625 L52.546875,13.96875 L48.7734375,8.15625 L48.7734375,16.171875 L43.4765625,16.171875 M64.3828125,0 L69.7734375,0 L69.7734375,10.828125 L77.4140625,10.828125 L77.4140625,16.171875 L64.3828125,16.171875" id="Shape" fill="#000000" fill-rule="nonzero"></path>
                <polyline id="Path" fill="#E44D26" points="7.875 110.390625 0.140625 23.578125 85.171875 23.578125 77.4375 110.34375 42.5859375 120"></polyline>
                <polyline id="Path" fill="#F16529" points="42.65625 112.617188 42.65625 30.703125 77.4140625 30.703125 70.78125 104.765625"></polyline>
                <path d="M15.9375,41.3203125 L42.65625,41.3203125 L42.65625,51.9609375 L27.609375,51.9609375 L28.59375,62.859375 L42.65625,62.859375 L42.65625,73.4765625 L18.84375,73.4765625 M19.3125,78.8203125 L30,78.8203125 L30.75,87.328125 L42.65625,90.515625 L42.65625,101.625 L20.8125,95.53125" id="Shape" fill="#EBEBEB" fill-rule="nonzero"></path>
                <path d="M69.28125,41.3203125 L42.609375,41.3203125 L42.609375,51.9609375 L68.296875,51.9609375 M67.3359375,62.859375 L42.609375,62.859375 L42.609375,73.5 L55.734375,73.5 L54.4921875,87.328125 L42.609375,90.515625 L42.609375,101.578125 L64.40625,95.53125" id="Shape" fill="#FFFFFF" fill-rule="nonzero"></path>
            </g>
        </g>
    </g>
</svg>