<?xml version="1.0" encoding="UTF-8"?>
<svg width="111px" height="101px" viewBox="0 0 111 101" version="1.1" xmlns="http://www.w3.org/2000/svg" xmlns:xlink="http://www.w3.org/1999/xlink">
    <title>logo-sketch</title>
    <g id="Page-1" stroke="none" stroke-width="1" fill="none" fill-rule="evenodd">
        <g id="Desktop-HD-Copy-2" transform="translate(-220.000000, -5682.000000)">
            <g id="logo-sketch" transform="translate(220.000000, 5682.000000)">
                <polygon id="Path" fill="#FDB300" points="24.169355 3.29077385 55.388105 0 86.606855 3.29077385 110.77621 35.6407539 55.388105 99.9502834 0 35.6407539"></polygon>
                <g id="Group" transform="translate(0.000000, 35.640754)">
                    <polygon id="Path" fill="#EA6C00" points="22.4349594 0 55.3881548 64.3095506 0 0"></polygon>
                    <polygon id="Path" fill="#EA6C00" transform="translate(83.082082, 32.154775) scale(-1, 1) translate(-83.082082, -32.154775) " points="77.8229643 0 110.77616 64.3095506 55.3880049 0"></polygon>
                    <polygon id="Path" fill="#FDAD00" points="22.4349594 0 88.3413503 0 55.3881548 64.3095506"></polygon>
                </g>
                <g id="Group">
                    <polygon id="Path" fill="#FDD231" points="55.3881548 0 24.169264 3.29073034 22.4349594 35.6407303"></polygon>
                    <polygon id="Path" fill="#FDD231" transform="translate(71.864582, 17.820365) scale(-1, 1) translate(-71.864582, -17.820365) " points="88.3411801 0 57.1222892 3.29073034 55.3879847 35.6407303"></polygon>
                    <polygon id="Path" fill="#FDAD00" transform="translate(98.691528, 19.465730) scale(-1, 1) translate(-98.691528, -19.465730) " points="86.6067549 35.6407303 110.776301 3.29073034 109.041714 35.6407303"></polygon>
                    <polygon id="Path" fill="#FDAD00" points="0 35.6407303 24.169264 3.29073034 22.4349594 35.6407303"></polygon>
                    <polygon id="Path" fill="#FEEEB7" points="55.3881548 0 22.4349594 35.6407303 88.3413503 35.6407303"></polygon>
                </g>
            </g>
        </g>
    </g>
</svg>