<?xml version="1.0" encoding="UTF-8"?>
<svg width="100px" height="100px" viewBox="0 0 100 100" version="1.1" xmlns="http://www.w3.org/2000/svg" xmlns:xlink="http://www.w3.org/1999/xlink">
    <!-- Generator: Sketch 52.6 (67491) - http://www.bohemiancoding.com/sketch -->
    <title>barclays</title>
    <desc>Created with Sketch.</desc>
    <defs>
        <linearGradient x1="42.905746%" y1="106.785326%" x2="92.3807124%" y2="-13.709874%" id="linearGradient-1">
            <stop stop-color="#006FFF" offset="0%"></stop>
            <stop stop-color="#00BAFF" offset="100%"></stop>
        </linearGradient>
    </defs>
    <g id="Page-1" stroke="none" stroke-width="1" fill="none" fill-rule="evenodd">
        <g id="Desktop-HD-Copy-2" transform="translate(-228.000000, -10857.000000)">
            <g id="Group-7" transform="translate(220.000000, 10772.000000)">
                <g id="barclays" transform="translate(8.000000, 85.000000)">
                    <rect id="Rectangle" fill="#FFFFFF" x="0" y="0" width="100" height="100" rx="24"></rect>
                    <path d="M46.3099855,21.708101 C46.245258,21.787853 46.2324076,21.825554 46.1448351,21.8192705 C45.9454171,21.8028367 45.4970835,21.8052535 45.363345,21.8052535 C44.7332031,21.8052535 44.1706445,21.9072393 43.6380699,22.0208255 C42.5139045,22.2605648 41.8204629,22.7347267 41.2041233,23.2359559 C40.9185605,23.468445 40.3731356,24.1199947 40.2493918,24.8150454 C40.1456373,25.4023101 40.2522474,25.7305016 40.3707559,26.0209922 C40.3907453,26.0698101 40.4654676,26.1582623 40.4802217,26.2114303 C40.8167098,25.852788 41.3754609,25.574381 42.4315672,25.5700309 C43.6114174,25.5651975 45.2267508,26.1128278 45.7916891,27.0398843 C46.597928,28.3628007 46.437061,29.4324441 46.2671511,30.7036426 C45.8326198,33.9613907 44.6446787,35.653583 42.0065546,36.0262423 C41.5501302,36.0905273 41.098941,36.1233948 40.6653615,36.1233948 C38.8125351,36.1233948 37.4618232,35.5274299 36.7698095,34.3930182 C36.5832418,34.0875439 36.5608727,33.9889414 36.5608727,33.9889414 C36.5608727,33.9889414 36.7688576,33.9377068 36.9506659,33.8507046 C37.6517225,33.5157462 38.1800136,33.0203172 38.3722925,32.2556647 C38.5859886,31.4044934 38.3689609,30.4498862 37.8197286,29.8225039 C36.826922,28.6866422 35.4500335,28.1104944 33.7257104,28.1104944 C32.7685992,28.1104944 31.9204777,28.2951324 31.3774326,28.4493196 C29.2062037,29.067035 27.4747414,30.7369934 26.0840508,33.5539305 C25.100287,35.545797 24.4130326,38.1776128 24.1484111,40.9650658 C23.8866453,43.6964507 24.0156245,46.0039418 24.1945771,48.0910273 C24.4901346,51.5643474 25.0603082,53.6451495 25.8860606,55.8757886 C26.7351339,58.1803795 27.7760101,60.3815345 28.9268281,62.292199 C29.303295,62.9161979 29.579339,63.3753761 29.7321151,63.5836979 C29.9529503,63.3478254 30.154272,63.13322 30.4669633,62.8156621 C30.9195803,62.3560006 32.2003293,60.6560747 32.562994,60.1311616 C32.9304181,59.6043151 33.6048221,58.5433719 33.9574921,57.7792028 L34.1507229,57.3606257 L34.5081523,57.6472495 C34.8903305,57.9536905 35.1130695,58.4892372 35.1040266,59.0789186 C35.0964116,59.5965816 34.9774272,60.20028 34.6652119,61.305691 C34.3249162,62.506321 33.7323735,63.9423402 33.0394079,65.2449561 C32.9546909,65.4034934 32.8718777,65.5557472 32.7919201,65.6997842 C32.3378753,66.5263048 32.1455964,66.9294149 32.3159822,67.1126028 C32.7367113,67.1739877 33.2730934,66.893164 33.8565933,66.4393026 C34.3858363,66.0294257 35.8012757,64.8133287 37.5070373,62.3888681 C38.7968292,60.5536055 39.8210476,58.7734443 40.8295601,56.6162737 L40.9775768,56.2987158 L41.2964552,56.4355026 C41.4725523,56.5113878 41.6367509,56.6631582 41.7362219,56.8439294 C41.9294527,57.198705 41.996084,57.6704501 41.9294527,58.2074469 C41.7704894,59.506196 41.021839,61.4743785 40.4216813,62.8963807 C39.404126,65.3073077 37.5346417,68.0058251 36.1463307,69.8449545 C36.0920738,69.9174563 35.7565376,70.3224997 35.7013288,70.3954849 C35.8169817,70.5158379 36.0996888,70.7502604 36.4418882,71.0344675 L36.9663718,71.4709284 C38.8705995,73.0606515 40.6420406,74.2825487 42.8894195,75.5580973 C44.6256411,76.5441219 48.1580526,78.3629507 50.5001432,79 C52.8427097,78.3629507 56.3755971,76.5441219 58.1118187,75.5580973 C60.3344489,74.2960824 62.1606228,73.0355176 64.0324867,71.4709284 L64.5445959,71.0460678 C64.8872713,70.7613774 65.1709303,70.5264715 65.2918185,70.4022517 C65.2294706,70.3055826 65.1076305,70.1586456 65.0343361,70.0706768 C64.9691326,69.9928582 64.9063088,69.9164896 64.8525278,69.8449545 C63.4618371,68.001475 61.5928288,65.2990908 60.5767013,62.8958974 C59.9760676,61.4709951 59.2283691,59.5008792 59.0727374,58.2084135 C59.0051542,57.6728668 59.0689299,57.1996717 59.2645404,56.841996 C59.3468777,56.6916756 59.4658621,56.5882397 59.6062638,56.5007542 C59.8061578,56.3750844 60.0231855,56.2977491 60.0231855,56.2977491 L60.1716781,56.6167571 C61.1778109,58.7719943 62.2015534,60.5521555 63.493249,62.3888681 C65.2028181,64.8167121 66.6154019,66.0303924 67.1432171,66.4393026 C67.7371877,66.8994475 68.2611953,67.1739877 68.5439025,67.1739877 C68.8756312,66.9782328 68.6904914,66.5789895 68.2131256,65.7089677 C68.1322162,65.5615474 68.0474992,65.4063935 67.9623063,65.2454395 C67.2683888,63.9437903 66.6744182,62.507771 66.3326948,61.3047243 C66.0223832,60.20173 65.9048266,59.598515 65.8976875,59.079402 C65.8881687,58.4892372 66.1104318,57.9536905 66.4916581,57.6477329 L66.8495634,57.3601423 L67.0423183,57.7792028 C67.419737,58.5965399 68.1198418,59.6753669 68.4377683,60.1321283 C68.7975774,60.6531747 70.0773745,62.3511671 70.5328471,62.8156621 C70.8445865,63.1327367 71.0454323,63.345892 71.1810746,63.4908956 C71.415712,63.3821429 71.6789057,62.945682 72.036811,62.3516505 C73.2233243,60.3825012 74.2642006,58.1813462 75.1147017,55.8753052 C75.9380744,53.6456328 76.5087239,51.5662808 76.8066611,48.0905439 C76.984186,46.0150587 77.1126892,43.7167513 76.8528271,40.9698992 C76.6129544,38.2684817 75.8885768,35.4969791 74.9162356,33.5553806 C74.3246447,32.3707009 73.471288,30.8694301 72.1162927,29.7688526 C71.4276105,29.2134887 70.5856762,28.774611 69.613811,28.4628532 C68.8999041,28.2337475 68.1460184,28.1172613 67.3726192,28.1172613 C66.2741544,28.1312783 64.4322746,28.3710176 63.1957878,29.8287874 C62.634181,30.4895206 62.427148,31.4383276 62.657502,32.3054493 C62.8507328,33.0348175 63.3204835,33.572781 63.984417,33.8265373 C63.984417,33.8265373 64.1952575,33.9053226 64.5269862,33.9667075 C64.4313227,34.1552122 64.2019206,34.4843704 64.2019206,34.4843704 C63.7764321,35.1243198 62.8250321,35.9629241 60.2145125,35.9629241 C58.6829442,35.8739885 57.5383135,35.5071293 56.2014038,33.7511354 C55.3727958,32.6621582 54.9506389,30.8346292 54.8901948,27.8267707 C54.8368897,26.3177663 54.6331883,25.0108003 54.2781386,23.9614574 C54.0401696,23.2572231 53.4809425,22.5186713 52.9450364,22.1663125 C52.4824247,21.8622882 52.0802571,21.614332 51.2873445,21.3547755 C50.3944849,21.0633182 49.259373,21.0193338 48.4088718,21 C47.2261661,21.0087002 46.6712224,21.2648733 46.3099855,21.708101 Z" id="Eagle" fill="url(#linearGradient-1)"></path>
                </g>
            </g>
        </g>
    </g>
</svg>