<?xml version="1.0" encoding="UTF-8"?>
<svg width="40px" height="40px" viewBox="0 0 40 40" version="1.1" xmlns="http://www.w3.org/2000/svg" xmlns:xlink="http://www.w3.org/1999/xlink">
    <title>ntu</title>
    <g id="ntu" stroke="none" stroke-width="1" fill="none" fill-rule="evenodd">
        <g id="Nottingham_Trent_University_shield" transform="translate(3.000000, 0.000000)">
            <path d="M16.7539956,0.0522880139 C5.03903817,0.0522880139 0.0522906417,1.49568038 0.0522906417,1.49568038 C0.0522906417,1.49568038 0.0522906417,12.4326595 0.0522906417,21.3962143 C0.0522906417,36.809443 16.7539956,39.7420873 16.7539956,39.7420873 C16.7539956,39.7420873 33.4586649,36.809443 33.4586649,21.3962143 C33.4586649,12.4326595 33.4586649,1.49568038 33.4586649,1.49568038 C33.4586649,1.49568038 28.4387018,0.0522880139 16.7539956,0.0522880139" id="path1106" fill="#EC0B62"></path>
            <polyline id="path1108" fill="#FFFFFF" fill-rule="nonzero" points="6.95585155 20.7991431 6.95585155 13.8571676 10.2812493 20.7991431 12.5325369 20.7991431 12.5325369 11.2092273 12.5325369 11.0969632 12.441327 11.0969632 10.7639776 11.0969632 10.6446446 11.0969632 10.6446446 11.2092273 10.6674471 18.209121 7.32513751 11.0969784 5.08715137 11.0969784 5.08715137 20.7991431 6.95486344 20.7991431"></polyline>
            <polyline id="path1110" fill="#FFFFFF" fill-rule="nonzero" points="17.9819845 20.7991431 17.9819845 12.7063043 20.2127878 12.7063043 20.2127878 11.0969784 13.6918523 11.0969784 13.6918523 12.7063043 15.9421898 12.7063043 15.9421898 20.7991431 17.9819845 20.7991431"></polyline>
            <path d="M21.3096625,17.3569472 C21.3096625,19.6261461 22.6020683,20.9315722 24.844577,20.9315722 C27.0756844,20.9315722 28.3590072,19.6261461 28.3590072,17.3569472 L28.3590072,11.0969784 L26.3126758,11.0969784 L26.3126758,17.3569472 C26.3126758,19.0098829 25.7159352,19.3567388 24.844577,19.3567388 C23.9139703,19.3567388 23.3468349,19.0098753 23.3468349,17.3569472 L23.3468349,11.0969784 L21.3096625,11.0969784 L21.3096625,17.3569472" id="path1112" fill="#FFFFFF" fill-rule="nonzero"></path>
        </g>
    </g>
</svg>