<?xml version="1.0" encoding="UTF-8"?>
<svg width="33px" height="34px" viewBox="0 0 33 34" version="1.1" xmlns="http://www.w3.org/2000/svg" xmlns:xlink="http://www.w3.org/1999/xlink">
    <title>rose</title>
    <g id="Page-1" stroke="none" stroke-width="1" fill="none" fill-rule="evenodd">
        <g id="Desktop-HD-Copy-3" transform="translate(-1009.000000, -480.000000)">
            <g id="rose" transform="translate(1009.000000, 481.000000)">
                <g id="g5864" transform="translate(16.052421, 28.790083) rotate(143.999999) translate(-16.052421, -28.790083) translate(14.052421, 26.290083)">
                    <line x1="0.0194166667" y1="4.68989" x2="3.37271667" y2="0.0744710001" id="path5866" stroke="#003100" stroke-width="0.5" stroke-linecap="round"></line>
                    <path d="M0.517923334,3.90512534 C0.522866667,3.90110167 1.14696,3.04420634 1.90482,2.000929 L3.28262,0.103986 L2.01026667,0.514034001 C1.31045667,0.739523667 0.736780001,0.926274001 0.735420001,0.929028334 C0.734053334,0.931725001 0.750493334,1.006332 0.771973334,1.094808 C0.897796668,1.61299133 0.917223334,2.12708334 0.831993334,2.682866 C0.777746667,3.036556 0.677293334,3.42566267 0.552166667,3.76671434 C0.505630001,3.89356167 0.498943334,3.92049534 0.517823334,3.90508334 L0.517823334,3.90508334 L0.517923334,3.90512534 Z" id="path5868" fill="#217200" fill-rule="nonzero"></path>
                    <polyline id="path5870" stroke="#003100" stroke-width="0.5" stroke-linecap="round" points="3.43333334 2.9 3.43333334 0 0.675273334 0.896147334"></polyline>
                    <path d="M0.600033334,3.988373 C0.602333334,3.98243434 1.22443333,3.124086 1.98246,2.08093234 L3.36068,0.184289667 L3.36388,1.521084 C3.36568,2.25632067 3.36534667,2.85963267 3.36314667,2.861778 C3.36101334,2.86392134 3.28497,2.87133067 3.19418334,2.87823934 C2.66248334,2.91870234 2.16755,3.059088 1.66530667,3.311898 C1.34569333,3.47278034 1.00667,3.68856234 0.720976667,3.91295434 C0.614716667,3.99641034 0.591166667,4.01109267 0.599993334,3.988373 L0.599993334,3.988373 L0.600033334,3.988373 Z" id="path5872" fill="#5AB124" fill-rule="nonzero"></path>
                </g>
                <g id="g5854" transform="translate(3.630557, 19.307145) rotate(-144.000000) translate(-3.630557, -19.307145) translate(1.630557, 16.807145)">
                    <line x1="0.0194166667" y1="4.68989002" x2="3.37271668" y2="0.0744710002" id="path5856" stroke="#003100" stroke-width="0.5" stroke-linecap="round"></line>
                    <path d="M0.517923335,3.90512535 C0.522866668,3.90110168 1.14696,3.04420634 1.90482001,2.00092901 L3.28262001,0.103986 L2.01026667,0.514034002 C1.31045667,0.739523669 0.736780002,0.926274003 0.735420002,0.929028336 C0.734053336,0.931725003 0.750493336,1.006332 0.771973336,1.094808 C0.89779667,1.61299134 0.917223336,2.12708334 0.831993336,2.68286601 C0.777746669,3.03655601 0.677293336,3.42566268 0.552166668,3.76671435 C0.505630002,3.89356168 0.498943335,3.92049535 0.517823335,3.90508335 L0.517823335,3.90508335 L0.517923335,3.90512535 Z" id="path5858" fill="#217200" fill-rule="nonzero"></path>
                    <polyline id="path5860" stroke="#003100" stroke-width="0.5" stroke-linecap="round" points="3.43333334 2.90000001 3.43333334 0 0.675273335 0.896147336"></polyline>
                    <path d="M0.600033335,3.98837301 C0.602333335,3.98243435 1.22443334,3.12408601 1.98246001,2.08093234 L3.36068001,0.184289667 L3.36388001,1.521084 C3.36568001,2.25632067 3.36534668,2.85963268 3.36314668,2.86177801 C3.36101334,2.86392134 3.28497001,2.87133068 3.19418334,2.87823934 C2.66248334,2.91870234 2.16755001,3.05908801 1.66530667,3.31189801 C1.34569334,3.47278034 1.00667,3.68856235 0.720976669,3.91295435 C0.614716669,3.99641035 0.591166669,4.01109268 0.599993335,3.98837301 L0.599993335,3.98837301 L0.600033335,3.98837301 Z" id="path5862" fill="#5AB124" fill-rule="nonzero"></path>
                </g>
                <g id="g5844" transform="translate(8.810801, 4.562863) rotate(-72.000000) translate(-8.810801, -4.562863) translate(6.810801, 2.062863)">
                    <line x1="0.0194166667" y1="4.68989001" x2="3.37271667" y2="0.0744710002" id="path5846" stroke="#003100" stroke-width="0.5" stroke-linecap="round"></line>
                    <path d="M0.517923334,3.90512534 C0.522866668,3.90110168 1.14696,3.04420634 1.90482,2.000929 L3.28262001,0.103986 L2.01026667,0.514034001 C1.31045667,0.739523668 0.736780002,0.926274002 0.735420002,0.929028335 C0.734053335,0.931725002 0.750493335,1.006332 0.771973335,1.094808 C0.897796669,1.61299134 0.917223335,2.12708334 0.831993335,2.68286601 C0.777746668,3.03655601 0.677293335,3.42566267 0.552166668,3.76671434 C0.505630001,3.89356168 0.498943334,3.92049534 0.517823334,3.90508334 L0.517823334,3.90508334 L0.517923334,3.90512534 Z" id="path5848" fill="#217200" fill-rule="nonzero"></path>
                    <polyline id="path5850" stroke="#003100" stroke-width="0.5" stroke-linecap="round" points="3.43333334 2.90000001 3.43333334 0 0.675273335 0.896147335"></polyline>
                    <path d="M0.600033335,3.98837301 C0.602333335,3.98243434 1.22443334,3.12408601 1.98246,2.08093234 L3.36068001,0.184289667 L3.36388001,1.521084 C3.36568001,2.25632067 3.36534667,2.85963267 3.36314667,2.86177801 C3.36101334,2.86392134 3.28497001,2.87133067 3.19418334,2.87823934 C2.66248334,2.91870234 2.16755,3.05908801 1.66530667,3.31189801 C1.34569334,3.47278034 1.00667,3.68856234 0.720976668,3.91295434 C0.614716668,3.99641034 0.591166668,4.01109268 0.599993335,3.98837301 L0.599993335,3.98837301 L0.600033335,3.98837301 Z" id="path5852" fill="#5AB124" fill-rule="nonzero"></path>
                </g>
                <polygon id="path6303" fill="#FFFFFF" fill-rule="nonzero" points="10.7008948 13.5 16.3675615 9.5 22.0342282 13.5 19.7008948 20.1666667 12.8675615 20.1666667"></polygon>
                <g id="g5838" transform="translate(22.434228, 2.433333)">
                    <line x1="0.0194166667" y1="4.68989" x2="3.37271667" y2="0.074471" id="path2999-1-7" stroke="#003100" stroke-width="0.5" stroke-linecap="round"></line>
                    <path d="M0.517923333,3.90512533 C0.522866667,3.90110167 1.14696,3.04420633 1.90482,2.000929 L3.28262,0.103986 L2.01026667,0.514034 C1.31045667,0.739523667 0.73678,0.926274 0.73542,0.929028333 C0.734053333,0.931725 0.750493333,1.006332 0.771973333,1.094808 C0.897796667,1.61299133 0.917223333,2.12708333 0.831993333,2.682866 C0.777746667,3.036556 0.677293333,3.42566267 0.552166667,3.76671433 C0.50563,3.89356167 0.498943333,3.92049533 0.517823333,3.90508333 L0.517823333,3.90508333 L0.517923333,3.90512533 Z" id="path5816" fill="#217200" fill-rule="nonzero"></path>
                    <polyline id="path5792" stroke="#003100" stroke-width="0.5" stroke-linecap="round" points="3.43333333 2.9 3.43333333 0 0.675273333 0.896147333"></polyline>
                    <path d="M0.600033333,3.988373 C0.602333333,3.98243433 1.22443333,3.124086 1.98246,2.08093233 L3.36068,0.184289667 L3.36388,1.521084 C3.36568,2.25632067 3.36534667,2.85963267 3.36314667,2.861778 C3.36101333,2.86392133 3.28497,2.87133067 3.19418333,2.87823933 C2.66248333,2.91870233 2.16755,3.059088 1.66530667,3.311898 C1.34569333,3.47278033 1.00667,3.68856233 0.720976667,3.91295433 C0.614716667,3.99641033 0.591166667,4.01109267 0.599993333,3.988373 L0.599993333,3.988373 L0.600033333,3.988373 Z" id="path5814" fill="#5AB124" fill-rule="nonzero"></path>
                </g>
                <g id="g5874" transform="translate(28.909800, 19.906577) rotate(72.000000) translate(-28.909800, -19.906577) translate(26.909800, 17.406577)">
                    <line x1="0.0194166666" y1="4.68988998" x2="3.37271665" y2="0.0744709997" id="path5876" stroke="#003100" stroke-width="0.5" stroke-linecap="round"></line>
                    <path d="M0.517923331,3.90512532 C0.522866664,3.90110165 1.14696,3.04420632 1.90481999,2.00092899 L3.28261999,0.103986 L2.01026666,0.514033998 C1.31045666,0.739523664 0.736779997,0.926273996 0.735419997,0.929028329 C0.73405333,0.931724996 0.75049333,1.006332 0.77197333,1.094808 C0.897796663,1.61299133 0.917223329,2.12708332 0.83199333,2.68286599 C0.777746663,3.03655599 0.67729333,3.42566265 0.552166664,3.76671432 C0.505629998,3.89356165 0.498943331,3.92049532 0.517823331,3.90508332 L0.517823331,3.90508332 L0.517923331,3.90512532 Z" id="path5878" fill="#217200" fill-rule="nonzero"></path>
                    <polyline id="path5880" stroke="#003100" stroke-width="0.5" stroke-linecap="round" points="3.43333332 2.89999999 3.43333332 0 0.67527333 0.89614733"></polyline>
                    <path d="M0.600033331,3.98837298 C0.602333331,3.98243432 1.22443333,3.12408599 1.98245999,2.08093232 L3.36067999,0.184289666 L3.36387999,1.52108399 C3.36567999,2.25632066 3.36534665,2.85963265 3.36314665,2.86177799 C3.36101332,2.86392132 3.28496999,2.87133065 3.19418332,2.87823932 C2.66248332,2.91870232 2.16754999,3.05908799 1.66530666,3.31189799 C1.34569333,3.47278032 1.00667,3.68856232 0.720976664,3.91295432 C0.614716664,3.99641032 0.591166664,4.01109265 0.599993331,3.98837298 L0.599993331,3.98837298 L0.600033331,3.98837298 Z" id="path5882" fill="#5AB124" fill-rule="nonzero"></path>
                </g>
                <g id="g5637" stroke-linecap="round" transform="translate(1.100895, 0.000000)" fill="#FFFFFF" fill-rule="nonzero" stroke="#6A5000" stroke-width="0.5">
                    <path d="M9.93333333,8.16666667 C5.6,2.16666667 11.6,0 15.2666667,0 C18.9333333,0 24.9333333,2.16666667 20.6,8.16666667" id="path5479"></path>
                    <path d="M6.64416167,18.3061767 C-0.401251,20.57332 -0.607771333,14.197444 0.525290667,10.7102367 C1.658353,7.22302933 5.57307767,2.186227 9.940344,8.16157333" id="path5629"></path>
                    <path d="M15.271,24.567646 C15.2500283,31.9688167 9.12239133,30.1949767 6.15599567,28.0397637 C3.1896,25.884551 -0.390967333,20.604969 6.64148433,18.2979353" id="path5631"></path>
                    <path d="M23.89185,18.297936 C30.9243,20.604969 27.3437333,25.8845507 24.3773367,28.0397633 C21.4109433,30.1949767 15.2833067,31.9688167 15.2623337,24.5676453" id="path5633"></path>
                    <path d="M20.59299,8.16157233 C24.9602567,2.18622833 28.87498,7.22303067 30.0080433,10.710237 C31.1411067,14.1974423 30.9345867,20.5733197 23.88917,18.3061773" id="path5635"></path>
                </g>
                <g id="g6173" transform="translate(11.840403, 21.472544) rotate(-180.000000) translate(-11.840403, -21.472544) translate(10.840403, 19.972544)">
                    <line x1="0.0112842016" y1="2.72557929" x2="1.96009004" y2="0.043279611" id="path6175" stroke="#003100" stroke-width="0.5" stroke-linecap="round"></line>
                    <path d="M0.300996635,2.26950498 C0.303869506,2.26716659 0.666567962,1.76917278 1.10700633,1.1628611 L1.90772941,0.0604325662 L1.16828778,0.298736308 C0.761585783,0.429782018 0.428187507,0.538313954 0.427397128,0.539914664 C0.426602876,0.54148186 0.436157156,0.584840509 0.448640486,0.636259274 C0.521764049,0.937407011 0.533054063,1.23617703 0.483521745,1.55917601 C0.451995719,1.76472671 0.3936162,1.99086017 0.320897511,2.18906596 C0.293852234,2.26278463 0.289966207,2.27843742 0.300938519,2.26948057 L0.300938519,2.26948057 L0.300996635,2.26950498 Z" id="path6177" fill="#217200" fill-rule="nonzero"></path>
                    <polyline id="path6179" stroke="#003100" stroke-width="0.5" stroke-linecap="round" points="1.99531806 1.68536574 1.99531806 0 0.392442256 0.520805522"></polyline>
                    <path d="M0.348715732,2.31788525 C0.350052401,2.31443393 0.711592411,1.81559569 1.15212764,1.20935588 L1.95309481,0.107101893 L1.95495452,0.88399409 C1.95600061,1.31128467 1.95580689,1.66190584 1.95452833,1.66315262 C1.95328853,1.66439824 1.90909514,1.66870425 1.8563335,1.6727193 C1.54733041,1.6962348 1.25969466,1.77782142 0.967810622,1.92474463 C0.782063945,2.0182431 0.585036941,2.1436471 0.419003232,2.27405489 C0.357249107,2.32255623 0.343562775,2.33108902 0.348692486,2.31788525 L0.348692486,2.31788525 L0.348715732,2.31788525 Z" id="path6181" fill="#5AB124" fill-rule="nonzero"></path>
                </g>
                <path d="M19.8675615,3.33333333 C18.8675615,3.33333333 17.7675448,4 16.3675615,4 C14.9675772,4 13.8675615,3.33333333 12.8675615,3.33333333 C11.8675615,3.33333333 11.3675615,4 12.7008948,6 C9.53422817,3.66666667 11.5342282,2.1 12.8675615,2.1 C14.2008948,2.1 14.9675772,2.66666667 16.3675615,2.66666667 C17.7675448,2.66666667 18.5342282,2.1 19.8675615,2.1 C21.2008948,2.1 23.2008948,3.66666667 20.0342282,6 C21.3675615,4 20.8675615,3.33333333 19.8675615,3.33333333 Z" id="path5672" stroke="#D1D159" stroke-width="0.5" fill="#D1D159" fill-rule="nonzero" stroke-linecap="round"></path>
                <g id="g6203" transform="translate(16.445622, 7.788551) rotate(-36.000001) translate(-16.445622, -7.788551) translate(15.445622, 6.288551)">
                    <line x1="0.0112842015" y1="2.72557924" x2="1.96009001" y2="0.0432796103" id="path6205" stroke="#003100" stroke-width="0.5" stroke-linecap="round"></line>
                    <path d="M0.30099663,2.26950494 C0.303869501,2.26716655 0.666567951,1.76917275 1.10700632,1.16286108 L1.90772938,0.0604325652 L1.16828776,0.298736303 C0.76158577,0.429782011 0.4281875,0.538313945 0.427397121,0.539914655 C0.426602869,0.541481851 0.436157149,0.584840499 0.448640478,0.636259264 C0.521764041,0.937406996 0.533054054,1.23617701 0.483521737,1.55917599 C0.451995712,1.76472668 0.393616194,1.99086014 0.320897506,2.18906593 C0.293852229,2.2627846 0.289966202,2.27843738 0.300938514,2.26948054 L0.300938514,2.26948054 L0.30099663,2.26950494 Z" id="path6207" fill="#217200" fill-rule="nonzero"></path>
                    <polyline id="path6209" stroke="#003100" stroke-width="0.5" stroke-linecap="round" points="1.99531803 1.68536571 1.99531803 0 0.392442249 0.520805513"></polyline>
                    <path d="M0.348715726,2.31788521 C0.350052396,2.31443389 0.711592399,1.81559566 1.15212762,1.20935586 L1.95309477,0.107101891 L1.95495449,0.883994076 C1.95600058,1.31128465 1.95580686,1.66190581 1.9545283,1.66315259 C1.95328849,1.66439821 1.9090951,1.66870423 1.85633347,1.67271927 C1.54733039,1.69623477 1.25969464,1.77782139 0.967810606,1.9247446 C0.782063932,2.01824307 0.585036932,2.14364706 0.419003225,2.27405485 C0.357249101,2.32255619 0.343562769,2.33108898 0.34869248,2.31788521 L0.34869248,2.31788521 L0.348715726,2.31788521 Z" id="path6211" fill="#5AB124" fill-rule="nonzero"></path>
                </g>
                <path d="M12.7008948,6 C9.53422817,3.66666667 11.5342282,2.1 12.8675615,2.1 C14.2008948,2.1 14.9675772,2.66666667 16.3675615,2.66666667 C17.7675448,2.66666667 18.5342282,2.1 19.8675615,2.1 C21.2008948,2.1 23.2008948,3.66666667 20.0342282,6" id="path5668" stroke="#6A5000" stroke-width="0.5" stroke-linecap="round"></path>
                <g id="g5764" transform="translate(5.566719, 11.850401) rotate(-72.000000) translate(-5.566719, -11.850401) translate(0.066719, 9.850401)" stroke-linecap="round" stroke-width="0.5">
                    <path d="M8.8666666,1.23333332 C7.86666661,1.23333332 6.76664995,1.89999999 5.36666663,1.89999999 C3.9666823,1.89999999 2.86666665,1.23333332 1.86666665,1.23333332 C0.86666666,1.23333332 0.366666664,1.89999999 1.69999999,3.89999997 C-1.46666666,1.56666666 0.533333329,0 1.86666665,0 C3.19999998,0 3.9666823,0.566666663 5.36666663,0.566666663 C6.76664995,0.566666663 7.53333328,0 8.8666666,0 C10.1999999,0 12.1999999,1.56666666 9.03333327,3.89999997 C10.3666666,1.89999999 9.86666659,1.23333332 8.8666666,1.23333332 Z" id="path5766" stroke="#D1D159" fill="#D1D159" fill-rule="nonzero"></path>
                    <path d="M1.69999999,3.89999997 C-1.46666666,1.56666666 0.533333329,0 1.86666665,0 C3.19999998,0 3.9666823,0.566666663 5.36666663,0.566666663 C6.76664995,0.566666663 7.53333328,0 8.8666666,0 C10.1999999,0 12.1999999,1.56666666 9.03333327,3.89999997" id="path5768" stroke="#6A5000"></path>
                </g>
                <g id="g5770" transform="translate(9.558941, 24.644422) rotate(-144.000000) translate(-9.558941, -24.644422) translate(4.058941, 22.644422)" stroke-linecap="round" stroke-width="0.5">
                    <path d="M8.86666662,1.23333333 C7.86666663,1.23333333 6.76664997,1.89999999 5.36666664,1.89999999 C3.96668231,1.89999999 2.86666665,1.23333333 1.86666666,1.23333333 C0.866666662,1.23333333 0.366666665,1.89999999 1.69999999,3.89999998 C-1.46666666,1.56666666 0.533333331,0 1.86666666,0 C3.19999998,0 3.96668231,0.566666664 5.36666664,0.566666664 C6.76664997,0.566666664 7.5333333,0 8.86666662,0 C10.2,0 12.1999999,1.56666666 9.03333329,3.89999998 C10.3666666,1.89999999 9.86666662,1.23333333 8.86666662,1.23333333 Z" id="path5772" stroke="#D1D159" fill="#D1D159" fill-rule="nonzero"></path>
                    <path d="M1.69999999,3.89999998 C-1.46666666,1.56666666 0.533333331,0 1.86666666,0 C3.19999998,0 3.96668231,0.566666664 5.36666664,0.566666664 C6.76664997,0.566666664 7.5333333,0 8.86666662,0 C10.2,0 12.1999999,1.56666666 9.03333329,3.89999998" id="path5774" stroke="#6A5000"></path>
                </g>
                <g id="g6183" transform="translate(20.763172, 21.566014) rotate(108.000000) translate(-20.763172, -21.566014) translate(19.763172, 20.066014)">
                    <line x1="0.0112842015" y1="2.72557926" x2="1.96009002" y2="0.0432796106" id="path6185" stroke="#003100" stroke-width="0.5" stroke-linecap="round"></line>
                    <path d="M0.300996632,2.26950496 C0.303869503,2.26716656 0.666567955,1.76917276 1.10700632,1.16286109 L1.90772939,0.0604325655 L1.16828777,0.298736305 C0.761585775,0.429782013 0.428187502,0.538313948 0.427397124,0.539914658 C0.426602871,0.541481854 0.436157151,0.584840503 0.448640481,0.636259268 C0.521764044,0.937407001 0.533054057,1.23617701 0.48352174,1.559176 C0.451995715,1.76472669 0.393616196,1.99086015 0.320897508,2.18906594 C0.293852231,2.26278461 0.289966204,2.2784374 0.300938516,2.26948055 L0.300938516,2.26948055 L0.300996632,2.26950496 Z" id="path6187" fill="#217200" fill-rule="nonzero"></path>
                    <polyline id="path6189" stroke="#003100" stroke-width="0.5" stroke-linecap="round" points="1.99531804 1.68536572 1.99531804 0 0.392442252 0.520805517"></polyline>
                    <path d="M0.348715728,2.31788522 C0.350052398,2.3144339 0.711592403,1.81559568 1.15212763,1.20935587 L1.95309479,0.107101892 L1.9549545,0.883994081 C1.95600059,1.31128466 1.95580687,1.66190582 1.95452831,1.6631526 C1.95328851,1.66439822 1.90909512,1.66870424 1.85633348,1.67271928 C1.5473304,1.69623478 1.25969465,1.7778214 0.967810612,1.92474461 C0.782063937,2.01824308 0.585036935,2.14364708 0.419003228,2.27405486 C0.357249103,2.3225562 0.343562771,2.331089 0.348692482,2.31788522 L0.348692482,2.31788522 L0.348715728,2.31788522 Z" id="path6191" fill="#5AB124" fill-rule="nonzero"></path>
                </g>
                <g id="g5776" transform="translate(22.960444, 24.801165) rotate(144.000000) translate(-22.960444, -24.801165) translate(17.460444, 22.801165)" stroke-linecap="round" stroke-width="0.5">
                    <path d="M8.86666662,1.23333333 C7.86666663,1.23333333 6.76664997,1.89999999 5.36666664,1.89999999 C3.96668231,1.89999999 2.86666665,1.23333333 1.86666666,1.23333333 C0.866666662,1.23333333 0.366666665,1.89999999 1.69999999,3.89999998 C-1.46666666,1.56666666 0.533333331,0 1.86666666,0 C3.19999998,0 3.96668231,0.566666664 5.36666664,0.566666664 C6.76664997,0.566666664 7.5333333,0 8.86666662,0 C10.2,0 12.1999999,1.56666666 9.03333329,3.89999998 C10.3666666,1.89999999 9.86666662,1.23333333 8.86666662,1.23333333 Z" id="path5778" stroke="#D1D159" fill="#D1D159" fill-rule="nonzero"></path>
                    <path d="M1.69999999,3.89999998 C-1.46666666,1.56666666 0.533333331,0 1.86666666,0 C3.19999998,0 3.96668231,0.566666664 5.36666664,0.566666664 C6.76664997,0.566666664 7.5333333,0 8.86666662,0 C10.2,0 12.1999999,1.56666666 9.03333329,3.89999998" id="path5780" stroke="#6A5000"></path>
                </g>
                <g id="g6193" transform="translate(23.609353, 13.108842) rotate(35.999999) translate(-23.609353, -13.108842) translate(22.609353, 11.608842)">
                    <line x1="0.0112842015" y1="2.72557925" x2="1.96009002" y2="0.0432796105" id="path6195" stroke="#003100" stroke-width="0.5" stroke-linecap="round"></line>
                    <path d="M0.300996631,2.26950495 C0.303869502,2.26716656 0.666567953,1.76917276 1.10700632,1.16286108 L1.90772938,0.0604325654 L1.16828777,0.298736304 C0.761585773,0.429782012 0.428187501,0.538313947 0.427397123,0.539914657 C0.42660287,0.541481853 0.43615715,0.584840502 0.44864048,0.636259266 C0.521764043,0.937406999 0.533054056,1.23617701 0.483521739,1.55917599 C0.451995714,1.76472668 0.393616195,1.99086015 0.320897507,2.18906593 C0.29385223,2.26278461 0.289966203,2.27843739 0.300938515,2.26948054 L0.300938515,2.26948054 L0.300996631,2.26950495 Z" id="path6197" fill="#217200" fill-rule="nonzero"></path>
                    <polyline id="path6199" stroke="#003100" stroke-width="0.5" stroke-linecap="round" points="1.99531803 1.68536572 1.99531803 0 0.392442251 0.520805515"></polyline>
                    <path d="M0.348715728,2.31788522 C0.350052397,2.3144339 0.711592402,1.81559567 1.15212763,1.20935587 L1.95309478,0.107101892 L1.95495449,0.883994079 C1.95600058,1.31128466 1.95580686,1.66190582 1.95452831,1.6631526 C1.9532885,1.66439822 1.90909511,1.66870423 1.85633348,1.67271928 C1.54733039,1.69623478 1.25969464,1.7778214 0.967810609,1.9247446 C0.782063935,2.01824308 0.585036934,2.14364707 0.419003227,2.27405486 C0.357249102,2.3225562 0.34356277,2.33108899 0.348692481,2.31788522 L0.348692481,2.31788522 L0.348715728,2.31788522 Z" id="path6201" fill="#5AB124" fill-rule="nonzero"></path>
                </g>
                <g id="g5782" transform="translate(27.250809, 12.104013) rotate(72.000000) translate(-27.250809, -12.104013) translate(21.750809, 10.104013)" stroke-linecap="round" stroke-width="0.5">
                    <path d="M8.8666666,1.23333332 C7.86666661,1.23333332 6.76664995,1.89999999 5.36666663,1.89999999 C3.9666823,1.89999999 2.86666665,1.23333332 1.86666665,1.23333332 C0.86666666,1.23333332 0.366666664,1.89999999 1.69999999,3.89999997 C-1.46666666,1.56666666 0.533333329,0 1.86666665,0 C3.19999998,0 3.9666823,0.566666663 5.36666663,0.566666663 C6.76664995,0.566666663 7.53333328,0 8.8666666,0 C10.1999999,0 12.1999999,1.56666666 9.03333327,3.89999997 C10.3666666,1.89999999 9.86666659,1.23333332 8.8666666,1.23333332 Z" id="path5784" stroke="#D1D159" fill="#D1D159" fill-rule="nonzero"></path>
                    <path d="M1.69999999,3.89999997 C-1.46666666,1.56666666 0.533333329,0 1.86666665,0 C3.19999998,0 3.9666823,0.566666663 5.36666663,0.566666663 C6.76664995,0.566666663 7.53333328,0 8.8666666,0 C10.1999999,0 12.1999999,1.56666666 9.03333327,3.89999997" id="path5786" stroke="#6A5000"></path>
                </g>
                <g id="g6123" transform="translate(9.172014, 12.957605) rotate(-108.000000) translate(-9.172014, -12.957605) translate(8.172014, 11.457605)">
                    <line x1="0.0112842015" y1="2.72557926" x2="1.96009002" y2="0.0432796106" id="path6125" stroke="#003100" stroke-width="0.5" stroke-linecap="round"></line>
                    <path d="M0.300996632,2.26950496 C0.303869503,2.26716656 0.666567955,1.76917276 1.10700632,1.16286109 L1.90772939,0.0604325655 L1.16828777,0.298736305 C0.761585775,0.429782013 0.428187502,0.538313948 0.427397124,0.539914658 C0.426602871,0.541481854 0.436157151,0.584840503 0.448640481,0.636259268 C0.521764044,0.937407001 0.533054057,1.23617701 0.48352174,1.559176 C0.451995715,1.76472669 0.393616196,1.99086015 0.320897508,2.18906594 C0.293852231,2.26278461 0.289966204,2.2784374 0.300938516,2.26948055 L0.300938516,2.26948055 L0.300996632,2.26950496 Z" id="path6127" fill="#217200" fill-rule="nonzero"></path>
                    <polyline id="path6129" stroke="#003100" stroke-width="0.5" stroke-linecap="round" points="1.99531804 1.68536572 1.99531804 0 0.392442252 0.520805517"></polyline>
                    <path d="M0.348715728,2.31788522 C0.350052398,2.3144339 0.711592403,1.81559568 1.15212763,1.20935587 L1.95309479,0.107101892 L1.9549545,0.883994081 C1.95600059,1.31128466 1.95580687,1.66190582 1.95452831,1.6631526 C1.95328851,1.66439822 1.90909512,1.66870424 1.85633348,1.67271928 C1.5473304,1.69623478 1.25969465,1.7778214 0.967810612,1.92474461 C0.782063937,2.01824308 0.585036935,2.14364708 0.419003228,2.27405486 C0.357249103,2.3225562 0.343562771,2.331089 0.348692482,2.31788522 L0.348692482,2.31788522 L0.348715728,2.31788522 Z" id="path6131" fill="#5AB124" fill-rule="nonzero"></path>
                </g>
                <path d="M13.2706635,19.6435157 C10.7325808,23.1161517 8.4574975,20.1889607 7.79900617,18.1623333 C7.14051517,16.1357057 7.2605365,12.430298 11.3550528,13.747872" id="path6135" stroke="#6A5000" stroke-width="0.5" fill="#FFFFFF" fill-rule="nonzero" stroke-linecap="round"></path>
                <path d="M19.4656348,19.6405553 C21.9839982,23.1275193 18.4970348,24.3867007 16.3661132,24.3867007 C14.2351908,24.3867007 10.7482272,23.1275193 13.2665895,19.6405553" id="path6137" stroke="#6A5000" stroke-width="0.5" fill="#FFFFFF" fill-rule="nonzero" stroke-linecap="round"></path>
                <path d="M21.3771715,13.7478713 C25.4716882,12.4302977 25.5917115,16.1357053 24.9332215,18.162333 C24.2747282,20.1889603 21.9996448,23.1161517 19.4615615,19.6435157" id="path6139" stroke="#6A5000" stroke-width="0.5" fill="#FFFFFF" fill-rule="nonzero" stroke-linecap="round"></path>
                <path d="M16.3635948,10.1089527 C16.3757815,5.80768433 19.9369248,6.83857067 21.6608782,8.091096 C23.3848282,9.343619 25.4657115,12.4119043 21.3787282,13.7526617" id="path6141" stroke="#6A5000" stroke-width="0.5" fill="#FFFFFF" fill-rule="nonzero" stroke-linecap="round"></path>
                <path d="M11.3534962,13.7526617 C7.2665135,12.411904 9.3473985,9.34361967 11.0713498,8.09109467 C12.7953012,6.83857 16.3564428,5.80768267 16.3686315,10.108954" id="path6143" stroke="#6A5000" stroke-width="0.5" fill="#FFFFFF" fill-rule="nonzero" stroke-linecap="round"></path>
                <line x1="16.4008918" y1="9.9" x2="16.4008918" y2="13.5666667" id="path2999" stroke="#6A5000" stroke-width="0.5" stroke-linecap="round"></line>
                <path d="M12.0715704,17.0185014 C11.4904098,17.0185014 10.8511235,17.4059418 10.0375084,17.4059418 C9.22389264,17.4059418 8.58460688,17.0185014 8.00344628,17.0185014 C7.42228569,17.0185014 7.13170539,17.4059418 7.90658619,18.568263 C6.0662443,17.2122216 7.22856549,16.3017367 8.00344628,16.3017367 C8.77832708,16.3017367 9.22389264,16.631061 10.0375084,16.631061 C10.8511235,16.631061 11.2966897,16.3017367 12.0715704,16.3017367 C12.8464512,16.3017367 14.0087724,17.2122216 12.1684305,18.568263 C12.9433113,17.4059418 12.652731,17.0185014 12.0715704,17.0185014 Z" id="path6145" stroke="#D1D159" stroke-width="0.5" fill="#D1D159" fill-rule="nonzero" stroke-linecap="round" transform="translate(10.037508, 17.435000) rotate(-108.000000) translate(-10.037508, -17.435000) "></path>
                <path d="M11.7737968,19.1114297 C11.0528218,21.2807387 9.82772217,20.4566607 9.58827083,19.7197053 C9.3488195,18.98275 9.52433817,18.457225 9.27291717,17.6834307 C9.02149617,16.9096367 8.5706025,16.5876447 8.33115117,15.8506893 C8.09169983,15.113734 8.5984455,13.7269457 10.4568145,15.0581747" id="path6147" stroke="#6A5000" stroke-width="0.5" stroke-linecap="round"></path>
                <g id="g6149" transform="translate(15.985009, 21.666263) rotate(-180.000000) translate(-15.985009, -21.666263) translate(12.485009, 20.166263)" stroke-linecap="round" stroke-width="0.5">
                    <path d="M5.15295723,0.716764728 C4.57179664,0.716764728 3.93251031,1.10420512 3.11889517,1.10420512 C2.30527945,1.10420512 1.66599369,0.716764728 1.0848331,0.716764728 C0.503672511,0.716764728 0.213092216,1.10420512 0.987973003,2.2665263 C-0.852368865,0.910484924 0.309952315,0 1.0848331,0 C1.85971389,0 2.30527945,0.329324334 3.11889517,0.329324334 C3.93251031,0.329324334 4.37807644,0 5.15295723,0 C5.92783802,0 7.0901592,0.910484924 5.24981733,2.2665263 C6.02469812,1.10420512 5.73411782,0.716764728 5.15295723,0.716764728 Z" id="path6151" stroke="#D1D159" fill="#D1D159" fill-rule="nonzero"></path>
                    <path d="M0.987973003,2.2665263 C-0.852368865,0.910484924 0.309952315,0 1.0848331,0 C1.85971389,0 2.30527945,0.329324334 3.11889517,0.329324334 C3.93251031,0.329324334 4.37807644,0 5.15295723,0 C5.92783802,0 7.0901592,0.910484924 5.24981733,2.2665263" id="path6153" stroke="#6A5000"></path>
                </g>
                <g id="g6155" transform="translate(22.228161, 17.684124) rotate(108.000000) translate(-22.228161, -17.684124) translate(18.728161, 16.184124)" stroke-linecap="round" stroke-width="0.5">
                    <path d="M5.15295727,0.716764733 C4.57179667,0.716764733 3.93251033,1.10420513 3.11889519,1.10420513 C2.30527946,1.10420513 1.6659937,0.716764733 1.08483311,0.716764733 C0.503672515,0.716764733 0.213092218,1.10420513 0.98797301,2.26652632 C-0.852368871,0.910484931 0.309952317,0 1.08483311,0 C1.8597139,0 2.30527946,0.329324337 3.11889519,0.329324337 C3.93251033,0.329324337 4.37807648,0 5.15295727,0 C5.92783806,0 7.09015925,0.910484931 5.24981737,2.26652632 C6.02469816,1.10420513 5.73411786,0.716764733 5.15295727,0.716764733 Z" id="path6157" stroke="#D1D159" fill="#D1D159" fill-rule="nonzero"></path>
                    <path d="M0.98797301,2.26652632 C-0.852368871,0.910484931 0.309952317,0 1.08483311,0 C1.8597139,0 2.30527946,0.329324337 3.11889519,0.329324337 C3.93251033,0.329324337 4.37807648,0 5.15295727,0 C5.92783806,0 7.09015925,0.910484931 5.24981737,2.26652632" id="path6159" stroke="#6A5000"></path>
                </g>
                <g id="g6161" transform="translate(20.370163, 10.515983) rotate(36.000000) translate(-20.370163, -10.515983) translate(16.870163, 9.015983)" stroke-linecap="round" stroke-width="0.5">
                    <path d="M5.15295718,0.716764721 C4.5717966,0.716764721 3.93251027,1.10420511 3.11889514,1.10420511 C2.30527942,1.10420511 1.66599368,0.716764721 1.08483309,0.716764721 C0.503672507,0.716764721 0.213092214,1.10420511 0.987972994,2.26652628 C-0.852368857,0.910484916 0.309952312,0 1.08483309,0 C1.85971387,0 2.30527942,0.329324331 3.11889514,0.329324331 C3.93251027,0.329324331 4.3780764,0 5.15295718,0 C5.92783796,0 7.09015913,0.910484916 5.24981728,2.26652628 C6.02469806,1.10420511 5.73411777,0.716764721 5.15295718,0.716764721 Z" id="path6163" stroke="#D1D159" fill="#D1D159" fill-rule="nonzero"></path>
                    <path d="M0.987972994,2.26652628 C-0.852368857,0.910484916 0.309952312,0 1.08483309,0 C1.85971387,0 2.30527942,0.329324331 3.11889514,0.329324331 C3.93251027,0.329324331 4.3780764,0 5.15295718,0 C5.92783796,0 7.09015913,0.910484916 5.24981728,2.26652628" id="path6165" stroke="#6A5000"></path>
                </g>
                <g id="g6167" transform="translate(12.978702, 10.067967) rotate(-36.000000) translate(-12.978702, -10.067967) translate(9.478702, 8.567967)" stroke-linecap="round" stroke-width="0.5">
                    <path d="M5.15295718,0.716764721 C4.5717966,0.716764721 3.93251027,1.10420511 3.11889514,1.10420511 C2.30527942,1.10420511 1.66599368,0.716764721 1.08483309,0.716764721 C0.503672507,0.716764721 0.213092214,1.10420511 0.987972994,2.26652628 C-0.852368857,0.910484916 0.309952312,0 1.08483309,0 C1.85971387,0 2.30527942,0.329324331 3.11889514,0.329324331 C3.93251027,0.329324331 4.3780764,0 5.15295718,0 C5.92783796,0 7.09015913,0.910484916 5.24981728,2.26652628 C6.02469806,1.10420511 5.73411777,0.716764721 5.15295718,0.716764721 Z" id="path6169" stroke="#D1D159" fill="#D1D159" fill-rule="nonzero"></path>
                    <path d="M0.987972994,2.26652628 C-0.852368857,0.910484916 0.309952312,0 1.08483309,0 C1.85971387,0 2.30527942,0.329324331 3.11889514,0.329324331 C3.93251027,0.329324331 4.3780764,0 5.15295718,0 C5.92783796,0 7.09015913,0.910484916 5.24981728,2.26652628" id="path6171" stroke="#6A5000"></path>
                </g>
                <line x1="10.8733585" y1="13.5987567" x2="14.3605655" y2="14.731819" id="path6310" stroke="#6A5000" stroke-width="0.5" stroke-linecap="round"></line>
                <line x1="12.9918612" y1="20.0207683" x2="15.1470738" y2="17.054373" id="path6312" stroke="#6A5000" stroke-width="0.5" stroke-linecap="round"></line>
                <line x1="19.6883782" y1="19.954102" x2="17.5331682" y2="16.9877063" id="path6314" stroke="#6A5000" stroke-width="0.5" stroke-linecap="round"></line>
                <line x1="21.6355948" y1="13.66947" x2="18.1483882" y2="14.80253" id="path6316" stroke="#6A5000" stroke-width="0.5" stroke-linecap="round"></line>
                <line x1="16.4008948" y1="19.6333333" x2="16.4008948" y2="17.8333333" id="path6318" stroke="#6A5000" stroke-width="0.5" stroke-linecap="round"></line>
                <line x1="20.2985948" y1="16.7772703" x2="18.5866948" y2="16.2210397" id="path6320" stroke="#6A5000" stroke-width="0.5" stroke-linecap="round"></line>
                <line x1="18.7970748" y1="12.1560633" x2="17.7390615" y2="13.6122923" id="path6322" stroke="#6A5000" stroke-width="0.5" stroke-linecap="round"></line>
                <line x1="13.9380495" y1="12.1560623" x2="14.9960615" y2="13.6122923" id="path6324" stroke="#6A5000" stroke-width="0.5" stroke-linecap="round"></line>
                <line x1="12.4365272" y1="16.7772697" x2="14.1484282" y2="16.2210403" id="path6326" stroke="#6A5000" stroke-width="0.5" stroke-linecap="round"></line>
                <circle id="path3933" stroke="#6A5000" stroke-width="0.5" fill="#FBEB0F" fill-rule="nonzero" stroke-linecap="round" cx="16.3675615" cy="15.5" r="2.649292"></circle>
                <line x1="13.8926878" y1="16.324958" x2="15.5426035" y2="17.9748737" id="path6456" stroke="#6A5000" stroke-width="0.5" stroke-linecap="round"></line>
                <line x1="17.1925182" y1="13.0251263" x2="18.8424348" y2="14.675042" id="path6458" stroke="#6A5000" stroke-width="0.5" stroke-linecap="round"></line>
                <line x1="16.1318592" y1="12.907275" x2="18.9602848" y2="15.7357023" id="path6460" stroke="#6A5000" stroke-width="0.5" stroke-linecap="round"></line>
                <line x1="15.3069012" y1="13.0251263" x2="18.8424348" y2="16.5606603" id="path6462" stroke="#6A5000" stroke-width="0.5" stroke-linecap="round"></line>
                <line x1="13.7748365" y1="15.2642977" x2="16.6032648" y2="18.092725" id="path6464" stroke="#6A5000" stroke-width="0.5" stroke-linecap="round"></line>
                <line x1="13.8926878" y1="14.4393397" x2="17.4282215" y2="17.9748737" id="path6466" stroke="#6A5000" stroke-width="0.5" stroke-linecap="round"></line>
                <line x1="14.2462412" y1="13.8500843" x2="18.0174782" y2="17.6213203" id="path6468" stroke="#6A5000" stroke-width="0.5" stroke-linecap="round"></line>
                <line x1="18.4888815" y1="17.1499157" x2="14.7176458" y2="13.3786797" id="path6470" stroke="#6A5000" stroke-width="0.5" stroke-linecap="round"></line>
                <line x1="17.1925182" y1="17.974873" x2="18.8424348" y2="16.3249573" id="path6472" stroke="#6A5000" stroke-width="0.5" stroke-linecap="round"></line>
                <line x1="13.8926875" y1="14.675043" x2="15.5426038" y2="13.025126" id="path6474" stroke="#6A5000" stroke-width="0.5" stroke-linecap="round"></line>
                <line x1="13.7748362" y1="15.735702" x2="16.6032648" y2="12.9072753" id="path6476" stroke="#6A5000" stroke-width="0.5" stroke-linecap="round"></line>
                <line x1="13.8926875" y1="16.56066" x2="17.4282215" y2="13.025126" id="path6478" stroke="#6A5000" stroke-width="0.5" stroke-linecap="round"></line>
                <line x1="16.1318588" y1="18.0927243" x2="18.9602848" y2="15.2642967" id="path6480" stroke="#6A5000" stroke-width="0.5" stroke-linecap="round"></line>
                <line x1="15.3069008" y1="17.9748733" x2="18.8424348" y2="14.4393393" id="path6482" stroke="#6A5000" stroke-width="0.5" stroke-linecap="round"></line>
                <line x1="14.7176458" y1="17.62132" x2="18.4888815" y2="13.850083" id="path6484" stroke="#6A5000" stroke-width="0.5" stroke-linecap="round"></line>
                <line x1="18.0174782" y1="13.3786793" x2="14.2462412" y2="17.1499153" id="path6486" stroke="#6A5000" stroke-width="0.5" stroke-linecap="round"></line>
            </g>
        </g>
    </g>
</svg>